<?xml version="1.0" encoding="utf-8"?>
<!-- Generator: Adobe Adobe Illustrator 29.2.0, SVG Export Plug-In . SVG Version: 6.00 Build 0)  -->
<svg version="1.1" id="Layer_1" xmlns="http://www.w3.org/2000/svg" xmlns:xlink="http://www.w3.org/1999/xlink" x="0px" y="0px"
	 viewBox="0 0 2376 477.4" style="enable-background:new 0 0 2376 477.4;" xml:space="preserve">
<style type="text/css">
	.st0{fill:#FEFEFE;}
	.st1{fill:#056537;}
	.st2{fill:#3D4040;}
	.st3{fill:#3C4040;}
	.st4{fill:#3D3F40;}
	.st5{fill:#3E3F40;}
	.st6{fill:#FDB040;}
</style>
<path class="st0" d="M16.1,8.3h2352.3v469H16.1V8.3z"/>
<path class="st1" d="M1696.8,24.4h45.6l51.6,128.3l8.4,21.6l2.4,1.2l3.6-12l52.8-131.9l3.6-7.2h45.6v209.9h-42V133.5h-2.4l-3.6,12
	l-14.4,36l-20.4,50.4l-1.2,2.4h-46.8l-38.4-96l-1.2-2.4l-1.2,98.4h-42V24.4z"/>
<path class="st1" d="M1166.6,24.4h73.2l20.4,4.8l15.6,7.2l13.2,8.4l14.4,13.2l9.6,12l8.4,14.4l7.2,21.6l2.4,16.8v12l-2.4,18
	l-7.2,21.6l-10.8,18l-13.2,14.4l-9.6,8.4l-16.8,9.6l-19.2,7.2l-12,2.4h-73.2V24.4z"/>
<path class="st1" d="M2182.5,24.4h50.4l16.8,27.6l15.6,26.4l46.8,78l2.4,3.6l1.2-135.5h43.2v208.7l-1.2,1.2h-49.2l-54-90l-20.4-33.6
	l-7.2-12l-2.4-1.2v136.7h-42V24.4z"/>
<path class="st1" d="M2025.4,24.4h45.6l8.4,21.6l22.8,63.6l24,66l20.4,56.4v2.4h-44.4l-4.8-10.8l-16.8-45.6v-2.4h-64.8l-3.6,12
	l-16.8,46.8h-45.6l3.6-12l24-66l27.6-76.8L2025.4,24.4z"/>
<path class="st1" d="M689.3,24.4h127.1v42l-84,1.2v39.6l84,1.2v42l-84,1.2v39.6l84,1.2v42H689.3V24.4z"/>
<path class="st1" d="M858.4,24.4h42l1.2,136.7l4.8,13.2l8.4,9.6l12,6l3.6,1.2h15.6l10.8-3.6l10.8-8.4l7.2-14.4l1.2-4.8l1.2-135.5h42
	v140.3l-4.8,19.2l-8.4,15.6l-9.6,12l-13.2,10.8l-14.4,7.2l-10.8,3.6l-7.2,1.2h-25.2l-13.2-3.6l-14.4-6l-15.6-12l-9.6-10.8l-7.2-12
	l-6-18l-1.2-7.2V24.4z"/>
<path class="st1" d="M521.3,24.4h125.9l1.2,1.2v39.6l-1.2,1.2h-84v42h84l1.2,1.2v40.8h-85.2v84h-42V24.4z"/>
<path class="st1" d="M1455.7,24.4h42l1.2,166.7l75.6,1.2v42h-118.7V24.4z"/>
<path class="st1" d="M1616.4,24.4h42v209.9h-42V24.4z"/>
<path class="st1" d="M1372.9,24.4h40.8v209.9h-40.8l-1.2-3.6V26.8L1372.9,24.4z"/>
<path class="st0" d="M1208.6,66.3h25.2l14.4,3.6l13.2,7.2l12,10.8l8.4,12l4.8,12l1.2,6v22.8l-3.6,12l-6,12l-10.8,12l-9.6,7.2
	l-13.2,6l-10.8,2.4h-25.2V66.3z"/>
<path class="st0" d="M2047,87.9h2.4l15.6,43.2v2.4h-32.4l-1.2-2.4L2047,87.9z"/>
<g>
	<g>
		<path class="st2" d="M1031.4,296.4h49.2l12,2.4l12,6l12,10.8l7.2,13.2l2.4,9.6v16.8l-3.6,12l-2.4,4.8l1.2,4.8l8.4,9.6l4.8,9.6
			l2.4,9.6V420l-3.6,13.2l-7.2,12l-8.4,8.4l-13.2,7.2l-9.6,2.4h-64.8V297.6L1031.4,296.4z"/>
		<path class="st3" d="M1329,296.4h52.8l12,2.4l12,6l12,10.8l6,10.8l3.6,10.8v19.2l-4.8,13.2l-7.2,10.8l-10.8,9.6h-2.4l31.2,69.6
			v3.6h-36l-21.6-48l-8.4-18l-6-1.2v67.2H1329l-1.2-1.2V297.6L1329,296.4z"/>
		<path class="st3" d="M1961.4,296.4h52.8l15.6,3.6l12,7.2l8.4,8.4l8.4,16.8l1.2,6v16.8l-3.6,12l-7.2,12l-10.8,9.6l-2.4,1.2l1.2,6
			l21.6,48l7.2,16.8v2.4h-36l-19.2-42l-10.8-24h-4.8l-1.2,66h-33.6V297.6L1961.4,296.4z"/>
		<path class="st4" d="M1678.2,296.4h34.8l6,14.4l21.6,60L1767,444l6,15.6v3.6h-34.8l-10.8-28.8l-6-16.8l-51.6-1.2l-3.6,13.2
			l-12,32.4l-1.2,1.2h-34.8l3.6-12l21.6-60l33.6-92.4L1678.2,296.4z"/>
		<path class="st4" d="M2239.8,296.4h36l12,22.8l10.8,21.6l3.6-4.8l19.2-38.4l1.2-1.2h36l-1.2,6l-12,22.8l-28.8,57.6l-1.2,80.4H2283
			l-1.2-79.2l-13.2-27.6l-28.8-57.6V296.4z"/>
		<path class="st5" d="M521.3,296.4h32.4v133.2h60l1.2,32.4l-1.2,1.2h-92.4V296.4z"/>
		<path class="st3" d="M807,296.4h31.2l1.2,1.2V462l-1.2,1.2h-32.4V297.6L807,296.4z"/>
		<path class="st0" d="M1063.8,396h25.2l8.4,3.6l6,7.2l1.2,7.2l-2.4,8.4l-7.2,6l-2.4,1.2h-28.8l-1.2-2.4L1063.8,396z"/>
	</g>
	<path class="st0" d="M1361.4,330h20.4l7.2,3.6l4.8,6l1.2,10.8l-3.6,7.2l-6,4.8l-4.8,1.2h-19.2V330z"/>
	<path class="st0" d="M1993.8,330h20.4l7.2,3.6l4.8,6l1.2,10.8l-4.8,8.4l-4.8,3.6l-3.6,1.2h-20.4V330z"/>
	<path class="st0" d="M1063.8,330h16.8l7.2,3.6l4.8,6l1.2,10.8l-3.6,7.2l-6,4.8l-4.8,1.2h-15.6l-1.2-32.4L1063.8,330z"/>
	<path class="st0" d="M1695,348h2.4l12,33.6v1.2H1683l2.4-10.8l8.4-22.8L1695,348z"/>
</g>
<path class="st0" d="M528.3,442.4h6l2,2l-1,5h-7l-1-6L528.3,442.4z"/>
<path class="st0" d="M2019.3,428.4l6,1l1,4l-1,2h-6V428.4z"/>
<path class="st0" d="M528.3,428.4l5,1l1,4l-1,2h-6L528.3,428.4z"/>
<g>
	<path class="st6" d="M36.8,20.4h10.1l5.7,1.9l5,2.5l6.3,6.3l3.2,6.9l1.3,5.7v402.7l-2.5,8.2l-3.2,5l-4.4,4.4l-8.8,4.4l-3.2,0.6H38
		l-5.7-1.3l-7.6-4.4l-4.4-4.4l-3.2-6.3l-1.3-4.4l-0.6-5v-397l1.3-8.2l3.2-6.3l5.7-6.3l6.9-3.8L36.8,20.4z"/>
	<path class="st6" d="M231.5,20.4h12l7.6,3.2l5.7,4.4l3.8,5l2.5,5.7l0.6,3.2v406.5l-2.5,6.9l-5,6.9l-6.3,4.4l-4.4,1.9l-3.8,0.6h-8.2
		l-8.2-2.5l-6.9-5l-4.4-6.3l-2.5-6.9V42.5l2.5-8.2l5-6.9l6.3-4.4L231.5,20.4z"/>
	<path class="st6" d="M425,20.4h10.7l6.9,2.5l6.3,4.4l5,6.9l2.5,6.9v407.1l-2.5,6.9l-4.4,6.3l-6.9,5l-4.4,1.9l-3.2,0.6h-8.8
		l-8.2-2.5l-5.7-4.4l-4.4-5l-2.5-5l-1.3-5V41.8l3.2-8.8l5.7-6.3l5-3.8L425,20.4z"/>
	<path class="st6" d="M330.4,139.5h10.1l8.2,3.2l5.7,4.4l3.8,5l3.2,7.6v289.3l-3.2,7.6l-5,6.3l-5.7,3.8l-4.4,1.9l-3.8,0.6h-8.2
		l-5-1.3l-5-2.5l-6.3-5.7l-3.8-6.3l-1.9-5.7V161.6l1.9-6.9l4.4-6.3l6.3-5.7l5.7-2.5L330.4,139.5z"/>
	<path class="st6" d="M135.1,20.4h11.3l7.6,3.2l5,3.8l4.4,5l3.2,8.2l0.6,228.1l-1.3,7.6l-3.8,6.9l-5.7,5.7l-7.6,3.8l-1.9,0.6h-12.6
		l-7.6-3.2l-5-4.4l-3.8-4.4l-2.5-5l-1.3-9.5V43.7l1.3-5.7l3.2-6.3l5.7-6.3l5-3.2L135.1,20.4z"/>
	<path class="st6" d="M137.6,321.6l8.8,0.6l7.6,3.2l6.3,5.7l3.8,6.3l1.9,6.9v103.4l-2.5,6.9l-3.8,5.7l-5.7,5l-6.3,3.2l-3.2,0.6h-8.8
		l-6.9-1.9l-5.7-3.8l-5.7-5.7l-3.2-6.9l-0.6-2.5V342.4l1.9-5.7l4.4-6.3l4.4-4.4l8.2-3.8L137.6,321.6z"/>
	<path class="st6" d="M329.8,20.4h10.7l6.9,2.5l5.7,3.8l4.4,5l2.5,5l1.3,4.4v39.7l-1.9,6.3l-4.4,6.3l-5,4.4l-5,2.5l-3.8,1.3h-12
		l-7.6-3.2l-5.7-4.4l-4.4-6.3l-2.5-8.2V43.1l1.9-6.9l1.9-3.8l3.8-5l6.3-4.4L329.8,20.4z"/>
</g>
</svg>
