<?xml version="1.0" encoding="utf-8"?>
<!-- Generator: Adobe Adobe Illustrator 29.2.0, SVG Export Plug-In . SVG Version: 6.00 Build 0)  -->
<svg version="1.1" id="Layer_1" xmlns="http://www.w3.org/2000/svg" xmlns:xlink="http://www.w3.org/1999/xlink" x="0px" y="0px" viewBox="0 0 1523 1401.9" style="enable-background:new 0 0 1523 1401.9;" xml:space="preserve">
<style type="text/css">
	.st0{fill:#E7F3B7;}
	.st1{fill:#F8F3B9;}
	.st2{fill:#0EC18D;}
	.st3{fill:#2C87A0;}
	.st4{fill:#39D69B;}
	.st5{fill:#AEF0AE;}
	.st6{fill:#0C4384;}
	.st7{fill:#FCCA61;}
	.st8{fill:#125089;}
	.st9{fill:#15568C;}
	.st10{fill:#14548B;}
	.st11{fill:#2BCA93;}
	.st12{fill:#40D198;}
	.st13{fill:#10C28D;}
	.st14{fill:#15578C;}
	.st15{fill:#42D299;}
	.st16{fill:#185C8E;}
	.st17{fill:#16588D;}
	.st18{fill:#38CF96;}
	.st19{fill:#75E3A4;}
	.st20{fill:#16C58F;}
	.st21{fill:#15558B;}
	.st22{fill:#13518A;}
	.st23{fill:#13528A;}
	.st24{fill:#17BC91;}
	.st25{fill:#16588C;}
	.st26{fill:#46D39A;}
	.st27{fill:#175A8D;}
	.st28{fill:#11C28E;}
	.st29{fill:#13C38E;}
	.st30{fill:#14C48F;}
	.st31{fill:#0C0501;}
	.st32{fill:#F7C418;}
	.st33{fill:#F3D788;}
	.st34{fill:#F19C11;}
	.st35{fill:#FEFEFE;}
	.st36{fill:#054C2C;}
	.st37{fill:#E48401;}
	.st38{fill:#039F58;}
	.st39{fill:#0E7628;}
	.st40{fill:#FBEAC4;}
	.st41{fill:#CA381D;}
	.st42{fill:#E57D4B;}
	.st43{fill:#D8D7D4;}
	.st44{fill:#022F1D;}
</style>
<g>
	<polygon class="st1" points="706.8,1138.9 706.8,1136.9 700,1136.9 700,1136.1 217,1136.1 217,1290.9 717.2,1290.9 717.2,1138.9 	
		"/>
	<path class="st2" d="M442.4,971.3l3.7,0.3l14.5,2.6l16.8,3.1l26.3,4.7l17.4,3.2l18.7,3.4v0.5l4.2,0.3l8.9,1.6l1.8,0.5l10,1.8
		l3.9,0.5l3.2,0.8l14.2,2.6l14.7,2.6l3.7,0.5l1.8,0.5l15.5,2.6l0.5,0.3l3.7,0.5l3.4,0.8l5.5,0.8l1.8,0.5l10,1.8l3.9,0.5l3.2,0.8
		l14.2,2.6l10.5,1.8l3.9,0.5l2.6,0.5l4.7,1.1l10,1.8l4.5,0.8l2.1,0.8l1.6,1.3l0.3,1.1h0.5v0.8l0.8,0.3v0.8h0.5v0.8h0.5v0.8h0.5v0.8
		h0.5v0.8h0.5l3.7,6.6l1.3,2.6l0.8,2.1l1.1,2.1l1.1,3.2l1.1,2.4l1.8,6.6l0.5,2.4l0.5,4.2l0.3,0.3l0.5,5.3l0.3,0.3l0.3,2.6v6.6
		l-0.3,2.6l-0.3,0.5l-1.3,10.3l-1.1,3.4l-1.1,4.2l-1.1,2.4l-0.8,2.6l-0.8,2.1l-2.1,4.2l-1.1,1.8l-1.3,1.1l-3.4,1.1l-1.3,0.8
		l-3.4,1.1l-8.9,3.4l-0.8,0.5l-3.4,1.1l-2.4,1.1l-4.5,1.6l-6.6,2.6l-0.8,0.5l-2.6,0.8l-4.2,1.6l-0.8,0.5l-2.6,0.8l-7.1,2.9l-3.2,1.3
		l-5.8,2.1l-3.9,1.6l-1.8,0.8l-2.4,1.1l-5.3,1.8l-8.7,3.4l-2.6,1.1l-5.5,2.1l-1.8,0.8l-2.1,1.1l-3.4,1.1l-5.3,2.1l-17.4,6.8
		l-2.1,1.1l-3.4,1.1l-5.3,2.1l-3.4,1.3l-2.6,1.1l-5.5,2.1l-10,3.9l-17.1,6.8l-0.8,0.5l-1.6,0.5l-3.7,1.3l-0.8,0.5l-2.6,0.8l-0.8,0.5
		l-2.6,0.8l-0.8,0.5l-1.6,0.5l-1.8,0.8h-1.3v0.5l-2.6,0.5v0.5l-2.1,0.8l-2.6,1.1l-6.6,2.4l-8.2,3.2h-2.9l-6.1-1.1l-3.2-0.5l-1.8-0.5
		l-3.7-0.5l-3.2-0.8l-3.7-0.5l-3.2-0.8l-5-0.8l-4.2-1.1l-11.1-2.1l-6.3-1.1l-4.2-0.8l-6.6-1.3l-3.4-0.5l-1.8-0.5l-3.2-0.5l-2.4-0.5
		l-10.3-2.1l-3.7-0.5l-6.3-1.3l-9.5-1.8l-4.7-0.8l-6.1-1.3l-8.7-1.6l-0.5-0.3l-2.4-0.3l-3.2-0.8l-3.4-0.5l-6.8-1.3l-7.4-1.6
		l-18.9-3.7l-16.1-3.2l-6.3-1.1l-8.4-1.8l-11.6-2.1l-44-8.4l-14.2-2.6l-4.5-1.1l-4.5-0.5l-1.8-0.5l-3.2-0.5l-1.3-0.5l-5.5-1.1
		l-0.8-0.3v-0.5h-0.5l-0.8-1.6v-2.9h0.5l0.3-1.1l0.8-0.8h0.8l0.3-0.8l2.4-1.1h0.5v-0.5l2.9-0.5l26.3,5l17.1,3.2l12.1,2.4l6.1,1.1
		l37.9,7.1l15.3,2.9l12.9,2.4l46.3,8.7l55,10.3l26.6,5l22.1,4.2l2.4,0.3l0.8-1.1h0.5l0.3-1.3l2.6-4.2l2.9-5.5l2.6-7.4l1.6-6.6
		l1.1-7.6l0.3-2.4v-5l-0.8-8.4l-1.3-8.2l-1.8-6.8l-2.4-6.6l-2.4-5.8l-2.1-4.7l-1.8-3.2l-1.8-0.8l-8.4-1.6l-13.7-2.6l-23.4-4.2
		l-16.1-2.9l-18.4-3.2l-8.9-1.6l-11.3-1.8l-31.8-5.3L249,1052.3l-12.9-1.8l-10.8-1.6l-6.3-1.3l-2.4-1.1l-0.3-0.5l-1.3-0.5v-0.5
		l-0.8-0.3v-0.5l-1.1-0.5l-0.8-1.8v-2.4l1.3-0.8l6.6-2.1l10-2.9l12.9-3.7l10.5-3.2l31.1-9.2l3.7-0.5v-0.5l8.2-2.4l12.1-3.7l8.4-2.4
		h1.6v-0.5l12.4-3.7l18.2-5.3l1.8-0.5h1.6v-0.5l24.7-7.4l11.6-3.4l10.8-3.2l4.7-1.3l4.5-1.1l2.9-1.1l3.9-1.3l6.3-1.8h1.8v-0.5
		l8.9-2.6l7.6-2.4L442.4,971.3z"/>
	<path class="st1" d="M254.5,1225.3l2.1,0.3l10.3,3.9l10,3.9l30.8,12.1l8.9,3.4l10.3,3.9l11.6,4.5l31.8,12.6l7.6,2.9l3.9,1.6
		l4.7,1.8l15.8,6.3l7.6,3.2l9.7,3.7l10,3.9l3.9,1.3l2.4,0.3l7.1-1.3l6.6-1.3l11.3-2.1l4.2-1.1l6.8-1.1l10.5-2.1l45.3-8.7l11.1-2.1
		l16.1-3.2l12.1-2.4l6.1-1.3l12.9-2.4l23.7-4.5l13.4-2.6l39.2-7.6l41.1-7.9l8.7-1.6l0.8,1.8l1.8,5.5l1.6,5.8l1.3,7.9l0.5,4.7v7.6
		l-0.8,7.4l-1.3,6.8l-1.8,6.6l-2.9,7.6l-2.1,4.5l-1.3,1.3l-9.5,3.7l-10.3,3.9l-21.6,8.4l-12.9,5l-8.2,3.2l-11.3,4.5l-24.7,9.7
		l-10.3,3.9l-11.3,4.5l-59.5,23.4l-19.5,7.6l-14.5,5.8l-5-1.1l-15-2.9l-17.4-3.4l-30.3-5.8l-14.7-2.9l-17.9-3.4l-65.5-12.6
		l-108.7-21.1l-12.9-2.6l-2.1-0.8l-0.8-1.8v-2.1l1.1-1.6l3.2-2.4l2.9-1.3V1249l0.5-1.6l-1.6-0.5l-2.6-1.6l-1.6-1.8l-0.5-1.6v-2.1
		l0.8-0.8l26.1-7.6l15.8-4.7L254.5,1225.3z"/>
	<path class="st1" d="M219.7,1047.6l6.8,1.3l20.3,2.9l18.2,2.6l56.1,8.7l15,2.4l23.2,3.7l16.1,2.6l41.1,6.8l17.1,2.9l16.3,2.9
		l12.9,2.4l14.7,2.6l21.6,4.2l1.3,1.1l2.1,4.2l2.4,5.3l2.4,6.1l1.8,5.5l1.6,5.8l1.3,8.2l0.8,8.4v5l-1.1,8.7l-1.3,5.8l-1.6,5.3
		l-2.1,5.3l-2.9,5.5l-2.4,3.7l-0.3,0.8h-0.5l-0.5,1.1l-0.8,0.3l-6.1-1.1l-16.3-3.2l-26.8-5l-12.4-2.4l-13.2-2.4l-134.8-25.3
		l-12.4-2.4l-6.1-1.1l-37.9-7.1l-13.7-2.6h-1.2l0.8-0.8l-0.5-2.1l-0.3-13.2v-61.6l1.1-1.1L219.7,1047.6z"/>
	<path class="st3" d="M711.9,1241.8l0.8,0.8l2.1,6.6l1.6,5.8l1.3,7.9l0.5,4.7v7.6l-0.8,7.4l-1.3,6.8l-1.8,6.6l-2.9,7.6l-2.1,4.5
		l-1.3,1.3l-9.5,3.7l-10.3,3.9l-21.6,8.4l-12.9,5l-8.2,3.2l-11.3,4.5l-24.7,9.7l-10.3,3.9l-11.3,4.5l-59.5,23.4l-19.5,7.6l-14.5,5.8
		l-5-1.1l-15-2.9l-17.4-3.4l-30.3-5.8l-14.7-2.9l-17.9-3.4l-65.5-12.6l-108.7-21.1l-12.9-2.6l-2.1-0.8l-0.8-1.8v-2.1l1.1-1.6
		l3.2-2.4l2.6-1.1h3.2l17.1,3.4l17.1,3.2l88.7,16.6l63.4,11.8l13.4,2.6l12.9,2.4l26.8,5l33.7,6.3l5,1.1l2.4-3.2l2.4-3.9l3.2-6.6
		l1.8-5l1.6-6.3l1.1-6.1l0.3-2.6v-11.8l-0.8-6.1l-1.3-6.8l-1.8-6.6l-2.6-7.6l-2.9-6.6l-2.1-4.2l-1.1-1.8l-10-2.1l-15.5-2.9l-0.5-0.5
		l9.5-1.8l52.1-10l11.1-2.1l16.1-3.2l12.1-2.4l6.1-1.3l12.9-2.4l23.7-4.5l13.4-2.6l39.2-7.6l41.1-7.9L711.9,1241.8z"/>
	<path class="st4" d="M442.4,971.3l3.7,0.3l14.5,2.6l16.8,3.1l26.3,4.7l17.4,3.2l18.7,3.4v0.3l-1.8,0.3l0.8,0.5v0.5h2.1l1.6,0.5
		l3.2,0.3l0.5,1.1l-2.4,0.8l-4.2,0.8l-15,2.4l-6.8,1.3l-31.1,5.3l-8.7,1.3l-7.4,1.3l-12.9,2.1l-6.6,1.3l-3.4,0.5l-9.2,1.6l-4.7,0.8
		l-2.6,0.3l-3.4,0.8l-8.9,1.3l-3.9,0.8l-7.9,1.3l-2.9,0.5l-9.7,1.6l-7.1,1.3l-6.3,1.1l-3.7,0.5l-7.9,1.3l-10.5,1.8l-6.3,1.1
		l-4.2,0.8l-2.4,0.5l-3.9,0.5l-10.5,1.8l-4.7,0.8l-7.6,1.3l-6.3,1.1l-11.3,1.8l-4.2,0.8l-7.6,1.3l-3.9,0.8l-7.9,1.1l-4.2,0.8
		l-2.4,0.3l-2.1,0.5l-6.6,1.3l-5,0.8l-12.1,2.1l-8.2,1.3l-6.6,1.3l-5,0.5h-4.2l-3.9-1.6l-2.6-2.1l-0.8-0.8v-0.5l-0.8-0.3l0.3,2.1
		l-0.8-1.1l-0.3-0.8v-2.4l1.3-0.8l6.6-2.1l10-2.9l12.9-3.7l10.5-3.2l31.1-9.2l3.7-0.5v-0.5l8.2-2.4l12.1-3.7l8.4-2.4h1.6v-0.5
		l12.4-3.7l18.2-5.3l1.8-0.5h1.6v-0.5L378,990l11.6-3.4l10.8-3.2l4.7-1.3l4.5-1.1l2.9-1.1l3.9-1.3l6.3-1.8h1.8v-0.5l8.9-2.6l7.6-2.4
		L442.4,971.3z"/>
	<path class="st5" d="M582.1,1068.7h1.3l1.3,2.1l2.4,5l2.6,6.8l2.1,6.8l1.6,6.6l1.3,7.6l0.5,6.1v10.5l-0.8,8.2l-1.3,6.6l-1.6,6.1
		l-1.8,5.3l-1.6,3.7l-1.3,1.1l-6.1,2.6l-12.1,4.5l-29.5,11.1l-9.2,3.4l-6.8,2.6l-7.1,2.6l-2.1,1.1h-1.1l0.3-1.1l3.2-6.6l2.1-5
		l2.1-6.3l1.6-6.1l1.3-7.6l0.5-7.1v-3.2l-0.5-8.2l-1.1-6.8l-1.3-6.1l-1.8-6.1l-2.6-6.6l-2.9-6.1l-1.8-3.2l-0.5-1.1l0.8-0.5l4.5-1.3
		l10.3-3.7l16.3-5.5l8.9-3.2l11.6-3.7l15.3-4.7L582.1,1068.7z"/>
	<path class="st6" d="M573.2,1268.4l1.8,0.3l1.8,4.2l3.7,8.9l2.6,7.9l1.6,6.6l1.1,6.1l0.8,6.3l0.3,3.4v11.1l-0.8,7.6l-1.1,6.3
		l-2.1,7.6l-2.1,5.3l-1.3,1.1l-5,2.1l-7.6,2.9l-10,3.9l-4.2,1.6l-3.2,1.3l-13.4,5.3l-17.6,6.8l-5,2.1l-5,1.8l-2.6,0.8l0.3-1.3
		l1.6-2.6l1.8-4.2l1.3-2.9l2.4-6.6l2.1-8.2l1.1-6.8l0.3-3.9v-8.4l-0.5-6.8l-1.1-6.1l-1.6-7.4l-2.1-6.8l-2.1-5.3l-2.6-5l-2.1-3.7
		v-0.8l14.7-5.3l11.8-4.2l7.9-2.9l7.4-2.6l12.9-4.7l2.6-1.1l0.8-0.5l-3.4,0.5l-17,3.2v-0.5l3.2-0.8l20.5-3.9L573.2,1268.4z"/>
	<path class="st7" d="M219.7,1138.1l3.7,0.5l3.2,0.8l3.4,0.8l-0.3,1.8l-2.1,5l-2.4,7.1l-1.6,6.3l-1.1,7.4l-0.3,3.2v8.4l0.8,8.2
		l1.3,6.1l1.6,5l1.6,4.2l1.6,3.4l2.1,0.5l10,3.7l7.1,2.9l12.6,5l6.6,2.6l10.3,3.9l6.3,2.4l9.7,3.9l7.9,3.2l13.7,5.3l10.8,4.2
		l10.3,3.9l9.5,3.9l11.1,4.2l8.9,3.4l9.5,3.7l25.5,10l7.1,2.9l10.3,3.9l10,3.9l4.5,1.8h1.8l13.7-2.6l31.3-6.3l29.2-5.8l11.6-2.4
		l17.6-3.4l63.2-12.6l13.9-2.6l40.5-8.2l19.7-3.9l18.7-3.7l15.5-3.2l4.5-1.1h3.7l3.9,1.6l2.1,1.6l1.1,2.4v2.1l-0.5,1.1l-2.4,1.1
		l-8.2,1.8l-7.6,1.6l-92.4,17.9l-25,4.7l-13.9,2.6l-18.4,3.7l-13.7,2.6l-46.3,8.9l-29,5.5l-3.4,0.5l-4.5,1.1l-14.2,2.6l-9.5,1.8
		l-2.4-0.3l-5.3-1.8l-20.3-7.9l-5.8-2.4l-15.8-6.3l-4.7-1.8l-5.3-2.1l-9.7-3.7l-20.5-8.2l-7.9-3.2l-13.7-5.3l-23.9-9.2l-7.4-2.9
		l-7.9-3.2l-22.1-8.7l-6.8-2.6v-0.5l-2.6-0.8l-17.9-6.8l-6.3-2.4l-9.2-3.7l-3.7-8.2l-2.6-7.9l-1.6-6.8l-1.1-6.6l-0.3-3.9v-7.6
		l0.5-6.3l1.1-6.6l1.8-6.8l1.6-4.5l2.4-5.8L219.7,1138.1z"/>
	<path class="st7" d="M665.3,1128.4h2.9l4.5,1.3l15,4.7l8.7,2.6l7.4,2.4l11.1,3.4l7.9,2.6l1.3,0.8l0.3,1.3l-0.5,1.6l-1.8,2.1
		l-2.6,1.3l-2.6,0.8l-9.7,1.8l-21.6,3.7l-32.6,5.5l-40.5,6.8l-25.3,4.2l-16.3,2.9l-22.6,3.9l-16.6,2.6l-6.6,1.3l-7.6,0.5v-0.5
		l2.6-1.1l1.1-0.5h1.1v-0.5l2.6-0.5v-0.5l2.6-0.8l0.8-0.5l1.8-0.5l1.6-0.8l1.8-0.5l1.6-0.8l1.8-0.5l2.6-1.1l1.6-0.8l1.8-0.5l2.6-1.3
		l4.2-1.6l3.4-1.3l8.9-3.7l8.2-3.2l10.3-3.9l8.7-3.4l1.8-0.5l2.9-1.3l16.1-6.3l7.4-2.9l1.8-0.5l1.6-0.8l2.6-1.1l4.7-1.8l3.4-1.3
		l7.9-3.2l3.4-1.3l1.8-0.5l2.4-1.1l2.6-1.1l7.4-2.9l3.4-1.3l2.6-1.1L665.3,1128.4z"/>
	<path class="st3" d="M254.5,1225.3l2.1,0.3l10.3,3.9l10,3.9l30.8,12.1l8.9,3.4l10.3,3.9l11.6,4.5l31.8,12.6l7.6,2.9l3.4,1.3
		l0.3,0.5l-7.1-1.1l-10.8-1.8l-20-3.2l-36.1-5.8l-40.8-6.3l-26.6-3.9l-24.7-3.4l-4.2-1.3l-2.9-1.6l-1.8-1.6l-1.1-2.4v-2.1l0.8-0.8
		l26.1-7.6l15.8-4.7L254.5,1225.3z"/>
	<path class="st7" d="M298.4,1153.4h2.4l6.6,1.3l6.1,1.3l9.5,1.6l15.8,3.2l17.9,3.4l8.2,1.8l4.2,0.8l5,0.8l0.5,0.3l2.4,0.3l3.2,0.8
		l6.1,1.1l3.2,0.8l4.2,0.8l8.9,1.6l6.1,1.3l4.2,0.8l4.7,0.8l9.2,1.8l7.1,1.3l0.3,0.3l3.4,0.5l3.9,0.8l4.2,0.8l3.9,0.8l2.4,0.3
		l2.6,0.5l12.4,2.4l2.9,0.8l6.3,1.1l3.2,0.8l5,0.8l1.8,0.5l3.4,0.5l3.2,0.8l-1.1,0.8l-3.2,0.8l-11.3,1.8l-22.4,3.9l-14.2,2.4
		l-3.7,0.3l-9.5-2.9l-12.6-4.2l-9.7-3.2l-22.4-7.6l-10.5-3.4l-18.9-6.3l-15.5-5.3l-9.5-3.2l-16.3-5.5l-4.2-1.3l-6.1-2.1l0.5-0.3
		v-0.5l-1.3-0.5l-2.4-0.8v-0.5H298.4z"/>
	<path class="st8" d="M255.5,1225.5l1.6,0.3l8.4,3.2l42.1,16.6l17.9,6.8v0.5l-1.6-0.3l-7.6-2.9l-10.3-3.9l-7.1-2.6l-8.2-3.4
		l-11.3-4.5l-6.6-2.6l-6.8-2.6l-7.6-2.9l-2.6-1.1L255.5,1225.5z"/>
	<path class="st9" d="M351.9,1263.2l1.8,0.3l16.6,6.6l7.6,2.9l3.4,1.3l0.3,0.5l-7.1-1.1l-1.8-0.5l0.8-0.8l0.3-0.5l-1.6-0.3l-4.5-1.8
		l-10.3-3.9l-5.5-2.4V1263.2z"/>
	<path class="st10" d="M255.5,1225.5l1.6,0.3l8.4,3.2l20,7.9l-0.3,0.5l-2.6-0.8l-5-2.1l-11.1-4.2l-3.9-1.6l-6.3-2.4L255.5,1225.5z"
		/>
	<path class="st11" d="M526.1,986.8h3.4l4.5,0.8v0.8l1.8,0.3l-1.1,0.5l-1.8-0.5l-2.9-0.3h-2.1l-1.1-1.1L526.1,986.8z"/>
	<path class="st12" d="M503.7,982.3l3.2,0.3l2.9,0.5l0.3,0.8h1.8l3.4,0.8v0.3l-3.4,0.3v-0.8l-3.9-0.3l-1.1,0.3l-0.8-0.8l-2.1-0.5
		L503.7,982.3z"/>
	<path class="st13" d="M487.9,980h2.1l2.4,0.5l2.9,0.3l1.6,0.5l1.8,0.5v0.3l-3.2,0.3l-0.8-0.3v-0.5l-3.4-0.3h-2.1l-0.3-1.1
		L487.9,980z"/>
	<path class="st14" d="M255.5,1225.5l1.6,0.3l8.4,3.2l3.2,1.3v0.5l-2.6-0.8l-7.6-2.9l-2.6-1.1L255.5,1225.5z"/>
	<path class="st15" d="M495.3,980.8l3.9,0.5l4.5,0.8l0.3,0.8l-0.5,0.3l-2.6,0.3l-1.1-0.8l-1.1-0.3l-0.3-0.5l-2.9-0.5L495.3,980.8z"
		/>
	<path class="st16" d="M351.9,1263.2l1.8,0.3l7.9,3.2l-0.3,0.5l-2.6-0.8l-6.8-2.9L351.9,1263.2L351.9,1263.2z"/>
	<path class="st17" d="M316.1,1248.9l2.6,0.8l6.8,2.6v0.5l-1.6-0.3l-7.6-2.9L316.1,1248.9z"/>
	<path class="st18" d="M517.4,985.2h3.7l1.8,0.5v0.5l2.4,0.3v0.3l-1.6,0.3l-2.9-0.8l-2.9-0.5L517.4,985.2z"/>
	<path class="st19" d="M542.7,989.4l2.6,0.3l7.6,1.3v0.3h-2.1l-5.5-0.8l-2.4-0.5L542.7,989.4z"/>
	<path class="st20" d="M288.4,1016.8h1.8l-0.3,0.8l-1.8,0.5l-2.6,0.5l-1.8,0.3l1.1-0.8l2.9-1.1L288.4,1016.8z"/>
	<path class="st21" d="M361.3,1266.8l1.6,0.3l5.3,2.1l0.5,0.8l-2.6-0.8l-3.9-1.6l-0.8-0.3L361.3,1266.8L361.3,1266.8z"/>
	<path class="st22" d="M285.3,1237.1l1.6,0.3l5.3,2.1v0.5l-1.3-0.3l-5.5-2.1L285.3,1237.1L285.3,1237.1z"/>
	<path class="st23" d="M310,1246.6l2.6,0.8l3.2,1.3l0.5,0.8l-2.6-0.8l-3.4-1.3L310,1246.6z"/>
	<path class="st2" d="M487.9,980h2.1l2.9,0.8v0.3l-1.6,0.3h-2.1l-0.3-1.1L487.9,980z"/>
	<path class="st24" d="M409.8,981h1.6l-0.5,0.5l-1.8,0.5l-1.1,0.5l-2.9,0.3l0.3-0.5L409.8,981z"/>
	<path class="st13" d="M476.6,977.9h2.6l1.6,0.5l1.1,0.5l-1.8,0.3l-1.8-0.3l-0.3-0.5l-1.3-0.3L476.6,977.9L476.6,977.9z"/>
	<path class="st2" d="M509.2,983.7l3.4,0.5l2.6,0.5v0.3l-3.4,0.3v-0.8l-2.6-0.3V983.7z"/>
	<path class="st23" d="M255.5,1225.5l1.6,0.3l3.2,1.3l0.3,0.5l-1.3-0.3l-3.4-1.3L255.5,1225.5z"/>
	<path class="st25" d="M368.4,1269.5l2.6,0.8l2.1,0.8l-0.3,0.5l-1.3-0.3l-2.9-1.1L368.4,1269.5z"/>
	<path class="st26" d="M425.6,976.5l0.8,0.3l-2.1,0.8l-3.9,0.3l1.1-0.5L425.6,976.5z"/>
	<path class="st27" d="M281.1,1235.3l2.4,0.8l2.1,0.8l-0.3,0.5l-2.6-0.8l-1.3-0.5L281.1,1235.3z"/>
	<path class="st28" d="M520.8,985.8h2.1v0.5l2.4,0.3v0.3l-1.6,0.3l-2.9-0.8V985.8z"/>
	<path class="st29" d="M288.4,1016.8h1.8l-0.3,0.8l-1.8,0.5l-0.5-0.5v-0.5L288.4,1016.8z"/>
	<path class="st30" d="M442.4,971.3l2.9,0.5v0.3h-4.5l0.5-0.5L442.4,971.3z"/>
	<path class="st23" d="M361.3,1266.8l1.6,0.3l1.6,0.8l0.3,0.5l-2.6-0.8l-0.8-0.3L361.3,1266.8L361.3,1266.8z"/>
</g>
<g>
	<g>
		<path class="st31" d="M76.4,384.6C41.8,340.6,18.7,294.7,16,238c-1.1-22.1,0.2-72,15.4-88.8c3.8-2.7,7.8-4.7,12.5-5.3
			c6.9-0.9,13.2,1.7,18.3,6.3c6,5.4,9,12.7,13,19.4c3.1,5.1,6.5,9.9,10.3,14.5c11.8,14.1,25.6,26.5,39.4,38.6
			c12.7,11.1,25.5,22,39,32.2c5.8-16,13.8-32.5,23-46.9c1-1.6,2-3.2,3.1-4.8s2.1-3.2,3.2-4.7c1.1-1.6,2.2-3.1,3.3-4.6
			c1.1-1.5,2.3-3,3.5-4.5s2.4-3,3.6-4.5s2.4-2.9,3.7-4.4c1.2-1.4,2.5-2.9,3.8-4.3c1.3-1.4,2.6-2.8,3.9-4.2s2.7-2.7,4-4.1
			c1.4-1.3,2.7-2.7,4.1-4s2.8-2.6,4.2-3.9c1.4-1.3,2.9-2.5,4.3-3.8c1.5-1.2,2.9-2.4,4.4-3.6c1.5-1.2,3-2.4,4.5-3.5
			c1.5-1.2,3-2.3,4.6-3.4c1.5-1.1,3.1-2.2,4.7-3.3c1.6-1.1,3.2-2.1,4.7-3.2c1.6-1,3.2-2.1,4.8-3c1.6-1,3.3-2,4.9-2.9
			c1.6-1,3.3-1.9,5-2.8c1.7-0.9,3.4-1.8,5-2.7c1.7-0.9,3.4-1.7,5.1-2.5c1.7-0.8,3.4-1.6,5.2-2.4c1.7-0.8,3.5-1.5,5.2-2.3
			c1.8-0.7,3.5-1.4,5.3-2.1s3.6-1.4,5.3-2c1.8-0.6,3.6-1.3,5.4-1.9c1.8-0.6,3.6-1.2,5.4-1.7c1.8-0.6,3.7-1.1,5.5-1.6s3.7-1,5.5-1.4
			c1.8-0.5,3.7-0.9,5.6-1.3c1.9-0.4,3.7-0.8,5.6-1.2c9.8-2,19.8-3.6,29.8-4.6c7.5-0.7,15.6-0.6,22.9-2.3c0.2-0.1,0.4-0.1,0.7-0.2
			c-5.5,8.1-11.4,16.2-15.7,25c-9.5,19.3-10.1,41.5-6.4,62.3c14.9-3,29.7-4.3,44.9-5.6c2.2-8.9,4.2-17.9,6.8-26.7
			c8.9-29.5,18.9-55.9,22.9-86.9c2-15.2,0.4-30.3,1.2-45.5c0.3-6.3,1.5-11.6,6.5-15.9c5.8-5,15.2-7.6,22.9-6.9
			c11,1,19.9,10.2,26.7,18.2c32.2,37.9,63.6,96.2,72.1,145.4c0.6,3.9,1.1,7.8,1.5,11.7s0.7,7.8,0.8,11.7s0.2,7.8,0.1,11.8
			c-0.1,3.9-0.3,7.8-0.7,11.7C618,223,664.2,247.7,704,276.5c8.4,6.1,17,12.1,24.5,19.2c26.5-17.9,52.8-79.6,69.5-109.5
			c4.8-8.5,9.5-19.3,18.1-24.6c2.3-1.4,4.6-2.3,7.3-1.6c16.8,4.6,51.3,60,60,75.4c4.8,1,9.3,2.2,13.8,4.2
			c17.7,7.9,30.9,21.8,37.8,39.9c6.3,16.6,5,33.6-2.1,49.7c8.6,18.3,31.5,78.8,24.4,97.1c-1.4,3.6-4.1,5.2-7.8,5.6
			c-6.6,0.8-31.6-5.9-40-7.5c-9.6-1.9-19.3-3.4-29-4.8c-24.1-3.4-58.2-6.3-81.4,2.3c-6,2.2-11.8,5.5-17.6,8.3
			c-11.7,5.8-23.3,11.9-35.1,17.6c1.3,3.7,2.7,7.2,4.4,10.8c8.2-3.2,16.9-8.8,26.2-6.2c4.4,1.2,7.7,4.3,10,8.1
			c4,6.9,5.6,12.8,3.5,20.6c0.9,0.2,1.7,0.4,2.6,0.6c5,1.7,8.2,5.9,10.4,10.5c3.1,6.6,3.7,11.7,1.2,18.5c3.3,4,6.3,8.2,7.9,13.2
			c1.5,4.6,1.6,9.6-0.8,13.9c-3.5,6.2-10.5,8.4-16.9,10.2c2.1,6.1,5.5,11.8,7.2,18.1c0.4,1.6,1.1,4.6,0.2,6.2
			c-2.3,3.7-28.7,16.2-33.3,16.5c-2.5,0.2-5.5-3.1-7.3-4.7l3.4,6.7c-5.6,6.1-13.3,11.3-19.8,16.4c-2.5,1.9-4.9,3.9-7.4,5.7
			c-2.5,1.9-5,3.7-7.6,5.6c-2.5,1.8-5.1,3.6-7.7,5.4c-2.6,1.8-5.2,3.5-7.8,5.2s-5.3,3.4-7.9,5.1c-2.7,1.7-5.3,3.3-8,4.9
			c-2.7,1.6-5.4,3.2-8.1,4.7c-2.7,1.5-5.5,3.1-8.2,4.5c-2.8,1.5-5.5,2.9-8.3,4.3c-2.8,1.4-5.6,2.8-8.4,4.2s-5.7,2.7-8.5,4
			c-2.8,1.3-5.7,2.6-8.6,3.8c-2.9,1.2-5.8,2.4-8.7,3.6c-2.9,1.2-5.8,2.3-8.8,3.4c-2.9,1.1-5.9,2.2-8.8,3.2c-3,1-5.9,2-8.9,3
			c1.5,5.3,3,10.6,4.4,15.9c1.4,5.3,2.6,10.7,3.8,16c1.2,5.4,2.3,10.7,3.3,16.1c1,5.4,1.9,10.8,2.7,16.2c0.8,5.4,1.5,10.9,2.2,16.3
			c0.6,5.4,1.2,10.9,1.6,16.4c0.4,5.5,0.8,10.9,1.1,16.4c0.3,5.5,0.4,11,0.5,16.5c0.2,11.6,0.7,24.6-1.8,36
			c-3.8,1.9-7.5,4.4-11.1,6.6l-3.9,2.8c3.4,11.8,7.7,23.3,11.2,35c7.1,23.9,13.3,48.1,18.7,72.4c2.4,10.9,5.5,22.7,6,33.9
			c0.2,4.2-0.2,8.2-2.1,12.1c-8.1,16.7-36.6,28.7-53.6,34.3c-20.9,6.9-50.4,12.4-70.7,1.9c-3.3-1.7-7.4-4.3-9.4-7.5
			c-4.7-7.5-7.5-18.8-10.5-27.2c-6.2-17.3-12.6-34.4-18.3-51.9c-13.5,2-27.1,3.8-40.7,5.4c-0.8,22.8-4.2,45.6-12.2,67.1
			c-5.1,13.6-11.7,26.1-20.1,38c-24.4,34.9-56.4,52.3-94.2,69.6c-0.1,7.9-1.3,15-4.8,22.1c-5.7,11.6-15.4,20.3-27.7,24.3
			c-2.7,0.9-5.5,1.6-8.3,2.2s-5.6,0.9-8.5,1.2c-8.2,0.7-30.3-0.2-37.8-4c-2-5.8,18.4-19.5,18.1-30.3c-0.2-9.4-24.5-8.9-29.3-13.6
			c0-1.6,0.7-2.6,1.7-3.9c9.8-12.6,33.6-26.4,49.4-28.3c13.5-1.6,25.8,2.5,36.4,10.7c17.6-10.2,34-21.5,48.8-35.6
			c32-30.6,48.4-74.2,49.4-118.1h-11c-0.7,1.4-1.5,2.8-2.3,4.2c-8.1,13.5-17.8,26.9-27,39.6c-2.3,3.1-4.9,6-7.1,9.2
			c-6.7,9.7-11.9,21.7-20.1,30.1c-4,4-8.7,6.5-14.2,7.8c-22.7,5.5-56.4-9-75.8-20.7c-15.3-9.2-39.5-29.7-43.5-47.6
			c-3.5-15.5,26.5-63.5,35-78c4.9-8.4,9.4-17.1,14.7-25.2c-1.9-0.9-4.8-2-6.2-3.7c-6.6-7.7-2.8-73.9-1.8-85.8
			c-42-7.2-81.2-27-117.3-48.9c-9.9-6-19.5-12.6-29.4-18.7c-9.1-5.6-19.8-8.6-28.3-15.3c-5.4-4.2-8.5-9.4-9.3-16.2
			c-1-8.1,1.1-16.9,6.2-23.3c-2.7-4.1-4.6-7.3-4.7-12.4c-0.3-9.4,4.8-17.1,10.9-23.7c-6.4-3.2-12.2-8-17.8-12.4
			C36.5,604.4,17.7,585.2,0,563.1c0.4-7.9,2.6-16.1,4.3-23.9c10.5-47,31.5-91.9,57.4-132.3C66,399.6,70.9,391.9,76.4,384.6z
			 M173.9,245.4l-3.2,8.6l0.6-0.1c7-1.2,13.9-3.3,20.9-4.6c7.5-1.4,15.3-1.9,23-2.3c-4.2,2-9.5,2.3-14,3.8
			c-2.5,3.6-4.9,7.2-7.3,10.9c3.8-2.5,7.5-5.2,11.3-7.5c3.3-2,11.1-4.4,13.2-7.3c6.6-0.7,14.8-1.5,21.3-0.1
			c-16,4.7-36.4,10.7-48,23.2c-2,2.2-3.5,4.9-5.2,7.4c-0.7,0.4-2.2,1.6-2.9,1.4c-3-0.8-29.1-22.8-34.1-26.2
			c-17.1,36-39.3,68-78.7,82c-5.8,2.1-11.7,3.8-17.8,4.7c10.2,18.2,22.7,36.5,37,51.7c5.1,5.4,11.2,10.9,15.6,16.8
			c-2.7,0.6-6.6-2-8.8-3.5c-6-3.8-10.9-8.9-15.7-14c-9.9,10.5-17.4,23.5-24.6,35.9c-24.4,42-43.2,86.8-50.8,134.9
			c16.5,20,33.4,38.3,53.9,54.2c5.2,4.1,10.6,8.3,16.5,11.4c-0.8-8.4,1.5-16.4,7.1-22.9c2.2-2.5,4.9-4.4,8.3-4.5
			c7.6-0.2,15.9,7.8,21.3,12.5c-2.8-9-5.4-18-7.5-27.2c-4.5,0.4-8.8,0.9-13.3,0.3c-14.7-1.7-29.6-11.9-40.8-21.1
			c-5.6-4.6-14.1-12-14.8-19.7c-1.7-21.2,37.8-91.7,52.3-107.9c1-1.2,2.2-2.2,3.4-3.2c0,0.2,0,0.4,0.1,0.6c0.4,6-0.3,12.2-0.5,18.2
			c-0.3,7-0.1,14.1,0.4,21.1c2.1,34.2,9.7,69.2,17.4,102.6c3.3,14.1,6.1,30.2,12.9,43.1c4.8,9,13.4,16.8,21.1,23.6
			c10.3,9.1,22.9,18.8,35.7,23.9c9.4,3.8,20.4,4.9,30.3,6.3c34.1,4.9,66.4,6.5,100.9,4.4c99.7-6.2,173.8-27,257.9-81.8
			c24.9-16.2,50.1-34.9,69.9-57.3c18.6-21,30.9-45.7,33.7-73.9c-22.7-17.3-40.6-44.3-44.6-72.9c-1.8-13.3,0.2-25.2,5.1-37.5
			c2.3-2.8,4.6-5.6,7.4-7.9c5.7-4.5,12.7-7.7,19-11.2c12.4-6.8,25.1-13.5,37.2-21c-23.4-17.7-53.4-33.7-81.2-43
			c-7.1-2.4-19.9-7.2-27.1-5.2c-1.4,0.4-2.8,1.7-4.2,2.4l-1.6-0.7c0.4-1.2,0.8-2.4,1.8-3.3c2-2,5.8-2.2,8.4-2.1
			c24.8,0.4,90,32.4,107.1,50.6c8-4.7,16-9.3,24.1-13.8c-4.6-3.8-9.2-7.5-14-11.1c-4.7-3.6-9.5-7.1-14.4-10.5s-9.8-6.7-14.8-9.9
			c-5-3.2-10.1-6.3-15.2-9.3c-5.1-3-10.3-5.9-15.5-8.7c-5.2-2.8-10.5-5.5-15.9-8.1c-5.3-2.6-10.7-5.1-16.2-7.4
			c-5.4-2.4-10.9-4.6-16.5-6.8c-10.4-4.1-21.2-6.7-31.6-10.7c-0.3,2.1-0.6,4.2-1.1,6.2c-0.4,2.1-0.9,4.1-1.5,6.1s-1.2,4-1.9,6
			c-0.7,2-1.5,3.9-2.3,5.9l-5.6,1.9c1.9-6.7,3.7-13.4,5.3-20.2c4.3-16.7,2.9-35.1,0.8-52c-2,0.6-4.1,1.2-6.1,1.7
			c-35.3,9.6-72.7,5.7-106-9c-9-4-17.5-9-26.1-13.9c-3,12.2-7.3,32-12.4,43l-1.6,2.6l-0.9-6.4c-10.4-0.2-21,1.7-31.3,3.1
			c-4.5,0.4-8.9,1.5-13.3,2.4c0.9,7.1,2.6,14.3,4,21.3c-4.7-7.9-8.5-16.6-10.7-25.6c-7.4-30-0.4-56,15.3-81.7
			c-28.5,3.4-56.4,8.6-83,19.7c-1.6,0.7-3.3,1.4-4.9,2.1c-1.6,0.7-3.2,1.5-4.8,2.3s-3.2,1.6-4.8,2.4c-1.6,0.8-3.2,1.6-4.7,2.5
			c-1.6,0.8-3.1,1.7-4.6,2.6c-1.5,0.9-3.1,1.8-4.6,2.7s-3,1.9-4.5,2.8s-3,1.9-4.4,2.9c-1.5,1-2.9,2-4.4,3c-1.4,1-2.9,2.1-4.3,3.1
			c-1.4,1.1-2.8,2.2-4.2,3.3s-2.8,2.2-4.1,3.4c-1.4,1.1-2.7,2.3-4.1,3.5c-1.3,1.2-2.7,2.4-4,3.6c-1.3,1.2-2.6,2.4-3.9,3.6
			c-1.3,1.2-2.5,2.5-3.8,3.7c-1.2,1.3-2.5,2.5-3.7,3.8s-2.4,2.6-3.6,3.9c-1.2,1.3-2.4,2.7-3.5,4c-1.2,1.4-2.3,2.7-3.4,4.1
			c-1.1,1.4-2.2,2.8-3.3,4.2c-1.1,1.4-2.2,2.8-3.2,4.3c-1.1,1.4-2.1,2.9-3.1,4.3c-1,1.5-2,2.9-3,4.4s-1.9,3-2.9,4.5
			c-0.9,1.5-1.9,3-2.8,4.5s-1.8,3.1-2.7,4.6c-0.9,1.5-1.7,3.1-2.6,4.7c-0.8,1.6-1.6,3.1-2.4,4.7c-0.8,1.6-1.6,3.2-2.3,4.8
			c-0.8,1.6-1.5,3.2-2.2,4.9C175.3,242.1,174.6,243.7,173.9,245.4z M710.3,379.5c1.7,4.6,4.3,9.1,6.8,13.4
			c10.3,18.4,20.5,29.9,34.4,45.4l27.8-13.8c7.1-3.6,14.1-7.6,21.8-9.9c34.2-10.3,108.1,1,141.9,11.4
			c-19.8-20.9-36.6-44.8-51.8-69.2c-10.3-16.9-20.5-33.9-29.4-51.5c-18.7-37-41.5-96.5-45.6-138.2c-8.5,11.3-14.9,25.2-21.4,37.7
			c-11.9,22.7-23.4,45.5-37.5,66.9c-5.6,8.5-11.3,17.4-19.3,23.9c-11.3,9.2-31.8,18.9-45,26.1C694.3,341.1,701.3,362.5,710.3,379.5z
			 M643,420.8c1.4,3.7,3.6,7,5.8,10.3c8,12.3,17.5,23.2,31.1,29.5c6.5,3,13.3,4,20.5,3.9c14.8-8.4,29.9-15.9,45.1-23.5
			c-15.6-15.9-27.1-33.6-37.4-53.3c-10.2-19.1-18.4-41.4-20.6-63c-10.4,5.9-38.7,19.8-45.8,27c-3.1,3.2-5.1,7.2-6.7,11.3
			C628.1,382,634.8,403.3,643,420.8z M205.6,678.4c-8.2-1.7-16.6-2.5-24.7-4.7c-15.9-4.3-27.1-16.6-40.7-25
			c-6.6,29.6-14,49.5-31,74.8c15.6,11.1,32.6,20.7,49.5,29.6c3.3,1.7,7.2,4.3,10.7,5.4c25.8,14,53.6,24.5,82.7,29.2
			c0.8,0,1.4-0.3,2.1,0.4c0.8,0.8,0.9,1.6,1.1,2.6c-4.4,9.8-3.7,73.4-1.1,85.8c2.8,1.5,5.5,2.8,8.5,3.9c-3,3.1-4.1,5.2-5,9.4
			c-4.3,10-10.6,18.8-15.9,28.3c-3.3,5.5-6.5,11.1-8.9,17c23.3,28.4,53.1,53.9,87.5,67.7c8.2,3.3,16.6,6.2,25.5,7.1
			c4.1,0.4,8.3,0.6,12.5,0.6c2.9-4.3,5.9-8.5,8.5-12.9c6.2-9.6,12.3-19.2,18.3-28.8c2.7-4.3,5.1-9,8-13c0.9-1.2,1.5-2.1,2.9-2.7
			c0.8,0.1,1.2,0,1.7,0.7c0.8,1.1,1,2.5,1.3,3.8c4.7,0.2,9.2-0.4,13.9-0.5c14.1-0.3,27.7-0.3,41.7-2c11.6-1.4,23.7-2.9,35.1-5.1
			c5.2-1,10.2-2.9,15.4-3.7c1.4-0.2,2.2,0,3.5,0.6c1.1,1.3,1.2,1.5,1.5,3.1c-0.5,1.1-0.8,1.9-2.1,2.2c-3.6,1-11.1,2.6-14.8,3.2
			c2.2,7.8,5,15.4,7.8,23.1c2,7.1,5.2,13.8,7.4,20.8c2.9,7.6,9.1,27.2,13.1,32.5c2.1,2.8,5.6,4.8,8.7,6.3c21.5,9.6,53.6,1,74.8-7.3
			c12.6-5,32.9-14.6,38.7-27.9c4-9.3-2.9-34.9-5.1-45.8c-1.8-7.6-3.6-15.3-5.8-22.8c-5.4-22.3-11.5-44.3-18.5-66.1
			c-1.7-5.9-3.7-11.6-5.4-17.5l3-2.4c4.8-3,9.4-6,14-9.2c2.6-36-1.7-85.3-9.2-120.7c-3.2-15.2-7.6-30.2-12.3-45l5.5-1.3
			c32.6-9.1,71.9-27.8,99.5-47.2c17.1-10.9,32.6-23.6,48.9-35.6c-9.1-11.1-17-23.3-25.3-35c-11.8-16.5-23.9-32.8-36.1-49
			c-11.8,9.6-24.1,18.5-36.2,27.6c-10.8,8.3-22.5,15.5-33.3,23.8c-6.5,5-12.4,10.6-18.9,15.7c-12.3,9.7-25,18.7-38.1,27.3
			c-2.5,1.6-5.2,3.1-7.6,4.8c-1.7,1.2-3.7,2.3-5.5,3.4c-11,5.9-21.5,12.7-32.6,18.4c-52.9,27.4-98.5,41.7-157.5,50.2
			c-15.3,2.2-30.9,3.8-46.3,4.9c-7.9,0.6-16.6,0.1-24.3,1.8c-0.2,0-0.4,0.1-0.6,0.2c-4.6,0-9.2,0.4-13.8,0.6l-7.4-0.1
			C253.8,684.9,226.6,682.1,205.6,678.4z M746,463.2c-1.4-4.6-3.6-8.9-4.7-13.6c-11.7,5.6-23.3,11.5-34.8,17.5
			c4.2,9.7,8.2,19.5,11.9,29.3c-0.1,0.7,0,1-0.5,1.5c-4.1,3.7-7.7,7.5-10.7,12.2c4.8,6.9,25.3,36.3,29.9,40c2.3-0.3,3.6-1.9,5-3.7
			c0.7-0.8,1.2-1.7,1.8-2.6c3.8,10.1,16.8,30.7,23.8,39.3c9.8-2.9,20.3-8.3,29.1-13.3c-2.2-7.1-5.3-13.7-8.6-20.4
			c-2.1,0.6-4.2,1.2-6.4,1.4c6.3-6.2,17.7-6.5,23.9-13c2.1-2.1,3-4.8,2.8-7.7c-0.4-6.4-4.2-11.7-9-15.7c-7.6,0.2-15.4,3.4-22.6,5.5
			c2.3-1.7,4.7-3.4,7.2-4.7c4-2.1,13.2-4.8,15.8-8.6c1.4-2.1,1.5-4.5,0.9-6.9c-1-4.4-3.6-9.1-7.5-11.6c-7.5-4.6-19.6,3-27.5,4.6
			l-0.8,0.2c5.6-4.7,12.2-8,18.7-11.4c1-1.9,2.2-3.8,2.5-6c0.6-4.2-2.8-11.3-5.3-14.6c-8.9-11.4-26.2,4.3-34.5,2.6
			C746.3,463.3,746.1,463.3,746,463.2z M36,153.9c-12.9,14.5-14.6,54.3-13.5,73.3c0.1,1.6,0.2,3.2,0.4,4.8
			c9.6-0.8,18.1-2.6,27.1-5.8c14.8-6.4,28.7-17.3,37-31.3c-4.7-5.8-9.8-11.3-14-17.5c-6.6-9.6-10.9-25.8-24.6-27.2
			C43.7,149.8,39.8,151.6,36,153.9z M22,238.8c3.2,38.4,10.1,60.7,28.1,94.5c7.8-1.9,15.4-3.9,22.9-6.9
			c23.1-9.4,42.1-27.4,55.4-48.3c6.1-9.8,11.1-20.2,15.8-30.8c-9.3-7.2-18.4-14.8-27.2-22.7c-8.8-7.9-17.2-16.1-25.4-24.6
			c-13.8,19.4-31.8,32.9-55.7,37.1C31.4,237.9,26.7,238.4,22,238.8z M451.2,11.6c-3.9,3.8-4.3,8.6-4.3,13.8
			c-0.2,16,1.4,32.7-2.3,48.4c16.1,3,31.8,3.8,47.9,0.5c9.9-2,20.2-4.1,29.4-8.4c-8.2-14.1-34.3-54.6-50.3-58.3
			C464.7,5.9,457.2,8.5,451.2,11.6z M443.6,81.5c-2.5,18.4-10.1,42.7-16.3,60.5c7,4.6,13.9,9,21.5,12.6
			c26.9,12.8,60.2,18.9,89.7,14.1c7.6-1.3,15.2-2.7,22.6-4.9c-3-30.4-21.1-65.7-35.9-92C506,80.7,484,84.1,463,83.2
			C456.8,82.9,449.8,81,443.6,81.5z M171,260.7c4.2,3.6,8.5,7.2,13.1,10.3l4.9-10.4l3.6-6.8C185.3,255.8,178.1,258.1,171,260.7z
			 M89.1,439.3c-18.9,26.1-37,58.9-46.9,89.6c-1.6,4.9-4.1,11.3-3.2,16.5c1.5,9.1,16.4,19.7,23.6,24.4c5,3.2,10.1,6,15.5,8.6
			c9.5,3.9,16.8,5,27,4.8c-7.4-33.8-13.9-67.7-15.4-102.4c-0.4-9.3-0.6-18.6-0.4-27.9c0.1-4.4,1-9,0.7-13.3L89.1,439.3z
			 M823.5,167.4c-2,15.4,4.3,33.2,8.9,47.8c1.3,4.1,2.6,8.3,4,12.4c1.4,4.1,2.8,8.2,4.3,12.3s3,8.2,4.5,12.2
			c1.6,4.1,3.2,8.1,4.8,12.1c1.6,4,3.3,8,5.1,12c1.7,4,3.5,7.9,5.3,11.9c1.8,3.9,3.7,7.9,5.6,11.8s3.9,7.8,5.9,11.6
			c2,3.9,4,7.7,6.1,11.5s4.2,7.6,6.4,11.4c2.2,3.8,4.4,7.5,6.6,11.2s4.5,7.4,6.9,11.1c2.3,3.7,4.7,7.3,7.1,10.9s4.9,7.2,7.3,10.8
			c2.5,3.6,5,7.1,7.6,10.6s5.2,7,7.8,10.4c6.2,8,13.6,19,22.5,24c1.5-1,2-2,2.3-3.7c1.6-8.7-2.3-20.5-4.6-28.9
			c-13.1-48.6-36.4-93.6-61.4-137.1c-11.7-20.3-23.8-40.7-37.8-59.6C843.6,187.2,831.5,169.8,823.5,167.4z M89.2,604.3
			c-5.4,6.4-7.9,11.7-7.9,20.2c0,2.6,0.1,4.8-0.6,7.4c3.5,0.1,6.8,0.5,10.2,1.2c-8.4,3.6-14.5,7.8-18,16.5
			c-1.9,4.8-2.1,9.1-0.9,14.1c2.2,2.3,4.2,4.1,6.8,5.9c-5.3,5.6-9.9,11.6-9.5,19.8c0.2,5.7,2.6,11.1,6.9,15
			c6.9,6.2,17.1,10.3,25.4,14.5l5.8,2.8c10.3-17.3,19.5-34.9,25.4-54.2c2.2-7.1,3.5-14.3,5.4-21.4c-4.9-4.5-10.3-9-14.7-14.1
			c-3.5-4-5.8-8.9-9-13.1c-3.8-5-16-17.2-22.8-16.1C90.8,603,89.9,603.8,89.2,604.3z M887.4,243.1c8.6,15.1,17.7,30,25.6,45.5
			c5.6,11,10,22.6,15.9,33.3c1.5-4.5,3.1-9,3.6-13.8c1.8-15.8-4-32.1-13.8-44.4c-6-7.6-20.1-20.1-30.3-20.6
			C888.1,243.1,887.7,243.1,887.4,243.1z M677.2,465.8c-0.7,27.8-14.7,48-29.7,69.9c6.6-4.9,13.1-10.4,19.9-14.8l19.4-14.9
			c3.5-2.7,7-5.9,10.8-8.2l5.8,6.2c2.7-3.3,5.5-6.6,8.5-9.7c-3.8-8-6.9-16.4-10.7-24.4C692.1,471.3,685.7,469.3,677.2,465.8z
			 M229.4,940c-5.6,10.1-15.9,32.4-17.3,43.5c11.4,26.8,38.3,45,64.6,55.6c15,6,35.8,13.5,51.6,7.3c12-5.8,16.8-19.5,23.9-30
			c-6.8-0.7-13.4-1.4-20-3.2c-33.4-8.9-64.2-32.2-87.8-56.6C241.8,953.9,231.7,940.6,229.4,940z M413.5,962.8
			c-2.9,51.4-18.7,94.6-57.9,129.8c-4.5,4.1-9.2,7.9-14,11.5c-4.9,3.6-9.9,7-15.1,10.1c-5.3,3.2-11,6.1-16.1,9.6
			c-0.1,2.6-0.3,5.1,0.2,7.7l0.8,0.8c6.6-0.5,17-6.5,23.2-9.4c10.8-5.5,21.7-11.2,31.8-18c29.8-20.3,53.7-50.2,64.8-84.6
			c5.5-17,10.6-40.4,9.2-58.3C431.5,962.7,422.3,963.5,413.5,962.8z M249.4,1121.7c-6.1,4.1-11.9,8.4-17.3,13.5
			c7.4,1.8,18.2,4.1,22.6,11c1.9,2.9,2.3,6.4,1.6,9.8c-1.8,8.2-8.7,15.8-13.9,22.2c15.2,2.4,30.5,3,45.2-2.3
			c10.9-4.5,18.9-12.4,23.4-23.3c0.4-1,0.8-2.1,1.2-3.1c0.3-1,0.7-2.1,0.9-3.2c0.3-1.1,0.5-2.2,0.7-3.2c0.2-1.1,0.3-2.2,0.4-3.3
			c-2.2,0.2-4.1,0.6-5.9-0.8c-2.9-2.4-3.6-6.4-3.8-9.9c-0.2-2.7,0-5.4,0.3-8c-10-6.9-22-10.2-34.1-7.9
			C263.6,1114.2,255.2,1117.4,249.4,1121.7z"/>
		<path class="st32" d="M22.9,232.1c-0.2-1.6-0.3-3.2-0.4-4.8c-1.1-19,0.6-58.8,13.5-73.3c3.8-2.4,7.7-4.1,12.3-3.6
			c13.8,1.4,18,17.6,24.6,27.2c4.2,6.2,9.3,11.7,14,17.5c-8.3,14-22.2,24.9-37,31.3C40.9,229.4,32.4,231.3,22.9,232.1z"/>
		<path class="st32" d="M50.2,333.3c-18-33.8-24.9-56.1-28.1-94.5c4.7-0.4,9.4-0.9,14-1.7c23.8-4.2,41.9-17.6,55.7-37.1
			c8.2,8.5,16.6,16.7,25.4,24.6c8.8,7.9,17.8,15.4,27.2,22.7c-4.7,10.6-9.7,21-15.8,30.8c-13.3,20.8-32.4,38.9-55.4,48.3
			C65.6,329.4,57.9,331.4,50.2,333.3z"/>
		<path class="st32" d="M444.5,73.8c3.7-15.7,2.1-32.4,2.3-48.4c0.1-5.2,0.5-10,4.3-13.8c6-3.1,13.5-5.7,20.4-4.1
			c16,3.8,42.1,44.2,50.3,58.3c-9.2,4.4-19.5,6.5-29.4,8.4C476.3,77.5,460.6,76.8,444.5,73.8z"/>
		<path class="st33" d="M173.9,245.4c0.7-1.6,1.4-3.3,2.1-4.9c0.7-1.6,1.4-3.2,2.2-4.9c0.8-1.6,1.5-3.2,2.3-4.8s1.6-3.2,2.4-4.7
			c0.8-1.6,1.7-3.1,2.6-4.7c0.9-1.5,1.8-3.1,2.7-4.6c0.9-1.5,1.8-3,2.8-4.5c0.9-1.5,1.9-3,2.9-4.5s2-2.9,3-4.4s2-2.9,3.1-4.3
			c1.1-1.4,2.1-2.8,3.2-4.3c1.1-1.4,2.2-2.8,3.3-4.2c1.1-1.4,2.3-2.7,3.4-4.1c1.2-1.4,2.3-2.7,3.5-4s2.4-2.6,3.6-3.9
			c1.2-1.3,2.5-2.6,3.7-3.8c1.2-1.3,2.5-2.5,3.8-3.7s2.6-2.4,3.9-3.6c1.3-1.2,2.6-2.4,4-3.6c1.3-1.2,2.7-2.3,4.1-3.5
			c1.4-1.1,2.7-2.3,4.1-3.4c1.4-1.1,2.8-2.2,4.2-3.3s2.9-2.1,4.3-3.1c1.4-1,2.9-2,4.4-3s3-2,4.4-2.9s3-1.9,4.5-2.8s3-1.8,4.6-2.7
			c1.5-0.9,3.1-1.8,4.6-2.6c1.6-0.8,3.1-1.7,4.7-2.5c1.6-0.8,3.2-1.6,4.8-2.4c1.6-0.8,3.2-1.5,4.8-2.3c1.6-0.7,3.2-1.4,4.9-2.1
			c26.6-11.1,54.5-16.3,83-19.7c-15.7,25.7-22.7,51.7-15.3,81.7c2.2,9,6,17.7,10.7,25.6c-1.5-7-3.2-14.2-4-21.3
			c4.4-0.9,8.8-2,13.3-2.4c2.3,3.3,4.6,6,7.8,8.4c0,0.2-0.1,0.3-0.1,0.5c-0.7,3.8-0.3,7.8-0.4,11.6c-0.4,9.2-2.3,18.7-5.4,27.3
			c-14.4,39.6-53.8,65.6-83.9,92.6c-12.1,10.9-24.3,23.3-33.9,36.5c-2,2.8-3.9,5.6-5.6,8.5c-1.8,2.9-3.5,5.8-5,8.8
			c-1.6,3-3.1,6.1-4.4,9.2c-1.4,3.1-2.6,6.3-3.8,9.4c-0.5-3.6-0.9-6.9-2.6-10.2c-3.5-20.6-1.1-47.1,9.8-65.1
			c4-6.2,9.1-10.2,14.9-14.5c-28.2,5.6-58.6,11.5-82,29.4c-6.9,5.3-12.8,11.6-18.8,17.9c-0.3-6,0.2-12.2,0.8-18.2
			c1.4-5.6,1.9-11.7,3.1-17.4c1.4-7.4,3.6-14.5,5.7-21.7c2-3.4,3.4-8,5-11.7c2.2-5.1,4.8-10,7-15.2c1.7-2.4,3.2-5.1,5.2-7.4
			c11.6-12.6,31.9-18.5,48-23.2c4.9-0.5,19.6-5.4,25.5-6.9c-5.8-1.6-11.6-3.5-17.5-4.7c-18.1-3.6-36.8-1.9-54.4,3.3
			c-5.4,1.6-14,5.9-18.7,6.8C174.4,245.3,174.2,245.3,173.9,245.4z"/>
		<path class="st32" d="M427.4,142c6.1-17.8,13.7-42.1,16.3-60.5c6.2-0.5,13.1,1.3,19.4,1.6c21.1,1,43-2.5,62.2-11.4
			c14.8,26.3,32.9,61.6,35.9,92c-7.4,2.2-15,3.6-22.6,4.9c-29.5,4.7-62.8-1.3-89.7-14.1C441.3,151,434.3,146.6,427.4,142z"/>
		<path class="st34" d="M149.5,252.5c5,3.4,31.1,25.5,34.1,26.2c0.7,0.2,2.3-1,2.9-1.4c-2.2,5.1-4.8,10-7,15.2
			c-1.6,3.7-3,8.2-5,11.7c-4,2.6-16,17.6-20.3,22.2c-13.5,14.6-27.3,28.8-41.4,42.8c-7.4,7.4-14.6,15.2-22.8,21.8
			c-14.3-15.3-26.8-33.5-37-51.7c6.1-0.9,12-2.7,17.8-4.7C110.3,320.5,132.4,288.5,149.5,252.5z"/>
		<path class="st34" d="M170.7,254l3.2-8.6c0.3,0,0.5-0.1,0.8-0.1c4.7-0.9,13.3-5.2,18.7-6.8c17.6-5.2,36.3-6.9,54.4-3.3
			c5.9,1.2,11.7,3.1,17.5,4.7c-5.9,1.5-20.6,6.4-25.5,6.9c-6.5-1.4-14.7-0.7-21.3,0.1c-1.1,0-2.2,0.1-3.3,0.1
			c-7.7,0.4-15.4,0.9-23,2.3c-7,1.3-13.9,3.4-20.9,4.6L170.7,254z"/>
		<path class="st35" d="M184.1,271c-4.6-3.1-8.9-6.7-13.1-10.3c7.1-2.6,14.3-4.9,21.6-6.9l-3.6,6.8L184.1,271z"/>
		<path class="st36" d="M215.2,246.9c1.1-0.1,2.2-0.1,3.3-0.1c-2.1,2.8-9.8,5.3-13.2,7.3c-3.9,2.3-7.5,5.1-11.3,7.5
			c2.3-3.7,4.8-7.3,7.3-10.9C205.7,249.2,211,248.9,215.2,246.9z"/>
		<path class="st34" d="M412.1,191.7c5.1-11,9.3-30.9,12.4-43c8.6,4.9,17,9.9,26.1,13.9c33.3,14.7,70.8,18.6,106,9
			c2-0.6,4.1-1.1,6.1-1.7c2.1,17,3.4,35.3-0.8,52c-7.8,1.9-16,3.1-24.1,3.2c-8.6,0.1-17.2-1-25.8-2.2
			C477.8,218.4,442.4,208.9,412.1,191.7z"/>
		<path class="st37" d="M90.1,390.9c8.2-6.6,15.4-14.4,22.8-21.8c14.1-13.9,27.9-28.2,41.4-42.8c4.2-4.6,16.3-19.6,20.3-22.2
			c-2.1,7.2-4.2,14.4-5.7,21.7c-1.1,5.7-1.6,11.8-3.1,17.4c-3.8,0.9-43.1,45-49.4,52c-3.4,3.8-6.8,9.4-10.7,12.4
			C101.3,401.8,95.2,396.4,90.1,390.9z"/>
		<path class="st38" d="M378.5,191.1c10.3-1.4,20.9-3.3,31.3-3.1l0.9,6.4c1,3.3,4.7,5.8,7.3,7.9c13.4,11.1,25.2,23.2,35,37.7
			c2.8-0.5,5.6-0.9,8.4-1.2c2.8-0.3,5.6-0.6,8.4-0.8c2.8-0.2,5.6-0.4,8.5-0.5c2.8-0.1,5.7-0.2,8.5-0.1c2.8,0,5.7,0.1,8.5,0.2
			c2.8,0.1,5.6,0.3,8.5,0.6c2.8,0.2,5.6,0.6,8.4,0.9c2.8,0.4,5.6,0.8,8.4,1.3c11,2,21.9,5,32.9,7c1.1-1.7,2.3-3.4,3.2-5.2l5.6-1.9
			c0.8-1.9,1.6-3.9,2.3-5.9c0.7-2,1.3-4,1.9-6c0.6-2,1.1-4.1,1.5-6.1c0.4-2.1,0.8-4.1,1.1-6.2c10.4,4,21.2,6.6,31.6,10.7
			c5.5,2.2,11,4.4,16.5,6.8c5.4,2.4,10.8,4.8,16.2,7.4c5.3,2.6,10.6,5.3,15.9,8.1c5.2,2.8,10.4,5.7,15.5,8.7s10.2,6.1,15.2,9.3
			c5,3.2,9.9,6.5,14.8,9.9c4.9,3.4,9.7,6.9,14.4,10.5c4.7,3.6,9.4,7.3,14,11.1c-8.1,4.5-16.2,9.1-24.1,13.8
			c-17.1-18.2-82.3-50.2-107.1-50.6c-2.6,0-6.4,0.2-8.4,2.1c-0.9,0.9-1.4,2.1-1.8,3.3c16.7,21.8,41.8,61,50.5,86.6
			c-4.8,12.4-6.9,24.3-5.1,37.5c4,28.6,21.9,55.6,44.6,72.9c-2.9,28.1-15.2,52.8-33.7,73.9c-19.7,22.4-45,41.1-69.9,57.3
			c-84.1,54.8-158.2,75.7-257.9,81.8c-34.4,2.1-66.8,0.5-100.9-4.4c-10-1.4-20.9-2.5-30.3-6.3c-12.8-5.2-25.4-14.8-35.7-23.9
			c-7.6-6.8-16.2-14.6-21.1-23.6c-6.8-12.9-9.6-29-12.9-43.1C101.7,542.5,94,507.5,92,473.3c-0.4-7-0.6-14.1-0.4-21.1
			c0.2-6,0.9-12.2,0.5-18.2c0-0.2,0-0.4-0.1-0.6c-1.2,1-2.4,2.1-3.4,3.2c-14.5,16.3-54,86.7-52.3,107.9c0.6,7.7,9.2,15.1,14.8,19.7
			c11.3,9.2,26.1,19.4,40.8,21.1c4.5,0.5,8.8,0.1,13.3-0.3c2.1,9.1,4.8,18.2,7.5,27.2c-5.3-4.8-13.6-12.7-21.3-12.5
			c-3.4,0.1-6.2,1.9-8.3,4.5c-5.6,6.5-7.9,14.5-7.1,22.9c-5.9-3-11.2-7.3-16.5-11.4c-20.6-15.9-37.4-34.2-53.9-54.2
			c7.6-48.1,26.4-93,50.8-134.9c7.2-12.4,14.7-25.4,24.6-35.9c4.8,5.2,9.8,10.2,15.7,14c2.2,1.4,6.1,4,8.8,3.5
			c3.9-3.1,7.3-8.6,10.7-12.4c6.2-7,45.5-51.1,49.4-52c-0.5,6-1.1,12.2-0.8,18.2c0,3.8,0.1,7.5,0.2,11.2c22.2-20.3,43.9-33,73-40.8
			c4.1-1.1,8.5-2.6,12.7-3.3c-11,18-13.3,44.5-9.8,65.1c0.8,8.2,2.1,16.2,4.1,24.2c9.1-19.3,21.5-38.3,36.5-53.7
			c34.1-35.1,93.2-63.7,106.4-113.2c3.3-12.3,4.6-40.3-1.8-51.5C383.1,197.1,380.7,194.4,378.5,191.1z M193.3,428.1
			c-13.7,10-23.5,25.1-26,41.9c-3,19.7,1.5,38.6,13.5,54.6c0.3,0.4,0.6,0.8,1,1.2c0.3,0.4,0.7,0.8,1,1.2s0.7,0.8,1,1.2
			s0.7,0.8,1,1.2c0.4,0.4,0.7,0.8,1.1,1.1c0.4,0.4,0.7,0.7,1.1,1.1c0.4,0.4,0.7,0.7,1.1,1.1c0.4,0.4,0.8,0.7,1.2,1.1
			c0.4,0.3,0.8,0.7,1.2,1c0.4,0.3,0.8,0.7,1.2,1c0.4,0.3,0.8,0.7,1.2,1c0.4,0.3,0.8,0.6,1.3,0.9c0.4,0.3,0.8,0.6,1.3,0.9
			c0.4,0.3,0.9,0.6,1.3,0.9c0.4,0.3,0.9,0.6,1.3,0.8c0.4,0.3,0.9,0.5,1.3,0.8s0.9,0.5,1.4,0.8s0.9,0.5,1.4,0.7s0.9,0.5,1.4,0.7
			s0.9,0.5,1.4,0.7s0.9,0.4,1.4,0.6c0.5,0.2,1,0.4,1.4,0.6c0.5,0.2,1,0.4,1.5,0.6c0.5,0.2,1,0.4,1.5,0.5c0.5,0.2,1,0.3,1.5,0.5
			s1,0.3,1.5,0.5c0.5,0.1,1,0.3,1.5,0.4c0.5,0.1,1,0.3,1.5,0.4c0.5,0.1,1,0.2,1.5,0.4c0.5,0.1,1,0.2,1.5,0.3s1,0.2,1.5,0.3
			s1,0.2,1.5,0.2c0.9,0.1,1.7,0.2,2.6,0.3s1.7,0.1,2.6,0.2c0.9,0,1.7,0,2.6,0c0.9,0,1.7,0,2.6-0.1c0.9,0,1.7-0.1,2.6-0.2
			c0.9-0.1,1.7-0.2,2.6-0.3s1.7-0.3,2.6-0.4c0.8-0.2,1.7-0.4,2.5-0.6c0.8-0.2,1.7-0.4,2.5-0.7c0.8-0.2,1.7-0.5,2.5-0.8
			s1.6-0.6,2.4-0.9c0.8-0.3,1.6-0.7,2.4-1c0.8-0.4,1.6-0.7,2.3-1.1c0.8-0.4,1.5-0.8,2.3-1.2s1.5-0.9,2.2-1.3
			c0.7-0.5,1.4-0.9,2.2-1.4c14.3-11.2,23.2-25.5,25.6-43.7c0.1-0.6,0.1-1.2,0.2-1.8c0.1-0.6,0.1-1.2,0.2-1.8c0-0.6,0.1-1.2,0.1-1.8
			c0-0.6,0.1-1.2,0.1-1.8c0-0.6,0-1.2,0-1.8c0-0.6,0-1.2,0-1.8c0-0.6,0-1.2-0.1-1.8c0-0.6-0.1-1.2-0.1-1.8c0-0.6-0.1-1.2-0.1-1.8
			c-0.1-0.6-0.1-1.2-0.2-1.8c-0.1-0.6-0.2-1.2-0.2-1.8c-0.1-0.6-0.2-1.2-0.3-1.8c-0.1-0.6-0.2-1.2-0.3-1.8c-0.1-0.6-0.2-1.2-0.4-1.8
			c-0.1-0.6-0.3-1.2-0.4-1.8c-0.1-0.6-0.3-1.2-0.5-1.7s-0.3-1.2-0.5-1.7c-0.2-0.6-0.4-1.2-0.5-1.7c-0.2-0.6-0.4-1.1-0.6-1.7
			c-0.2-0.6-0.4-1.1-0.6-1.7c-0.2-0.6-0.4-1.1-0.7-1.7c-0.2-0.6-0.5-1.1-0.7-1.7s-0.5-1.1-0.8-1.6s-0.5-1.1-0.8-1.6
			s-0.5-1.1-0.8-1.6s-0.6-1.1-0.9-1.6c-0.3-0.5-0.6-1-0.9-1.6c-0.3-0.5-0.6-1-0.9-1.5c-0.3-0.5-0.7-1-1-1.5s-0.7-1-1-1.5
			s-0.7-1-1.1-1.5c-0.4-0.5-0.7-1-1.1-1.4c-9.9-12.7-25.5-22.5-41.6-24.4C218.2,415.8,203.8,420.3,193.3,428.1z M466.9,344.1
			c-14.1,9.9-22.3,22-25.2,39.1c-0.1,0.5-0.2,1.1-0.3,1.6s-0.2,1.1-0.2,1.7c-0.1,0.6-0.1,1.1-0.2,1.7c-0.1,0.6-0.1,1.1-0.1,1.7
			s-0.1,1.1-0.1,1.7s0,1.1-0.1,1.7c0,0.6,0,1.1,0,1.7s0,1.1,0,1.7s0,1.1,0.1,1.7c0,0.6,0.1,1.1,0.1,1.7s0.1,1.1,0.1,1.7
			c0.1,0.6,0.1,1.1,0.2,1.7c0.1,0.6,0.1,1.1,0.2,1.7c0.1,0.5,0.2,1.1,0.3,1.6s0.2,1.1,0.3,1.6s0.2,1.1,0.4,1.6
			c0.1,0.5,0.3,1.1,0.4,1.6c0.1,0.5,0.3,1.1,0.4,1.6c0.2,0.5,0.3,1.1,0.5,1.6s0.3,1.1,0.5,1.6s0.4,1.1,0.6,1.6
			c0.2,0.5,0.4,1,0.6,1.6c0.2,0.5,0.4,1,0.6,1.5c0.2,0.5,0.4,1,0.7,1.5s0.5,1,0.7,1.5s0.5,1,0.7,1.5c0.3,0.5,0.5,1,0.8,1.5
			s0.5,1,0.8,1.5s0.6,1,0.8,1.4c0.3,0.5,0.6,0.9,0.9,1.4c0.3,0.5,0.6,0.9,0.9,1.4c0.3,0.5,0.6,0.9,1,1.4c0.3,0.4,0.6,0.9,1,1.3
			c0.3,0.4,0.7,0.9,1,1.3s0.7,0.8,1,1.3c0.3,0.4,0.7,0.8,1.1,1.2c0.4,0.4,0.7,0.8,1.1,1.2c0.4,0.4,0.7,0.8,1.1,1.2
			c0.4,0.4,0.8,0.8,1.1,1.2c0.4,0.4,0.8,0.8,1.2,1.1c0.4,0.4,0.8,0.7,1.2,1.1s0.8,0.7,1.2,1.1c0.4,0.3,0.8,0.7,1.3,1
			c0.4,0.3,0.8,0.7,1.3,1c0.4,0.3,0.9,0.7,1.3,1c0.4,0.3,0.9,0.6,1.3,0.9c0.4,0.3,0.9,0.6,1.3,0.9c0.5,0.3,0.9,0.6,1.4,0.9
			s0.9,0.6,1.4,0.8c0.5,0.3,0.9,0.5,1.4,0.8s1,0.5,1.4,0.8c0.5,0.2,1,0.5,1.5,0.7s1,0.5,1.5,0.7s1,0.4,1.5,0.7
			c0.5,0.2,1,0.4,1.5,0.6s1,0.4,1.5,0.6s1,0.4,1.5,0.5c0.5,0.2,1,0.3,1.5,0.5s1,0.3,1.6,0.5c0.5,0.1,1,0.3,1.6,0.4
			c0.5,0.1,1,0.3,1.6,0.4c0.5,0.1,1.1,0.2,1.6,0.3c0.5,0.1,1.1,0.2,1.6,0.3c0.5,0.1,1.1,0.2,1.6,0.3c15,2.4,28.2-1,41-8.8
			c14.5-10.7,22.9-23.6,25.7-41.6c2.7-17.7-2.2-34.8-12.9-49.1c-10.9-14.7-25.2-24.1-43.5-26.6C493.2,332.3,477.8,335.8,466.9,344.1
			z M325.1,510.1c-12.7,7.8-28.3,17.3-31.9,33c-5,21.6,16,62.4,27.7,80.7c9.6,15.1,20.9,28,39,32c28.3,6.2,92-13,115.6-28.3
			c4.6-3,8.9-6.3,13-9.9c14.8-15.7,16.4-33.8,15.8-54.6c-0.5-18.9-6.5-61.7-20-74.6c-11.7-11.2-32.4-11.8-47.6-11.1
			C400.6,479,356.3,491.4,325.1,510.1z"/>
		<path class="st34" d="M386.3,199.5c6.4,11.2,5.1,39.2,1.8,51.5c-13.2,49.5-72.3,78.1-106.4,113.2c-14.9,15.4-27.3,34.4-36.5,53.7
			c-2-7.9-3.3-16-4.1-24.2c1.6,3.3,2.1,6.5,2.6,10.2c1.1-3.2,2.4-6.3,3.8-9.4c1.4-3.1,2.8-6.2,4.4-9.2c1.6-3,3.3-5.9,5-8.8
			c1.8-2.9,3.7-5.7,5.6-8.5c9.6-13.2,21.7-25.6,33.9-36.5c30.1-27,69.5-53,83.9-92.6c3.1-8.6,5-18.2,5.4-27.3
			c0.2-3.9-0.3-7.8,0.4-11.6C386.2,199.8,386.2,199.7,386.3,199.5z"/>
		<path class="st37" d="M410.6,194.4l1.6-2.6c30.2,17.2,65.6,26.6,99.9,31.2c8.6,1.1,17.1,2.3,25.8,2.2c8.1-0.1,16.2-1.3,24.1-3.2
			c-1.6,6.8-3.4,13.5-5.3,20.2c-1,1.8-2.2,3.5-3.2,5.2c-11-1.9-21.9-4.9-32.9-7c-2.8-0.5-5.6-0.9-8.4-1.3c-2.8-0.4-5.6-0.7-8.4-0.9
			c-2.8-0.2-5.6-0.4-8.5-0.6c-2.8-0.1-5.7-0.2-8.5-0.2s-5.7,0-8.5,0.1s-5.6,0.3-8.5,0.5c-2.8,0.2-5.6,0.5-8.4,0.8
			c-2.8,0.3-5.6,0.7-8.4,1.2c-9.9-14.5-21.6-26.6-35-37.7C415.3,200.2,411.6,197.7,410.6,194.4z"/>
		<path class="st32" d="M165.3,372.8c-0.1-3.8-0.2-7.5-0.2-11.2c6-6.2,11.9-12.6,18.8-17.9c23.4-18,53.8-23.9,82-29.4
			c-5.8,4.3-10.9,8.3-14.9,14.5c-4.2,0.7-8.5,2.1-12.7,3.3C209.2,339.8,187.4,352.4,165.3,372.8z"/>
		<path class="st39" d="M78,578.4c-5.3-2.6-10.5-5.4-15.5-8.6c-7.2-4.7-22.1-15.3-23.6-24.4c-0.9-5.2,1.6-11.6,3.2-16.5
			c10-30.7,28-63.5,46.9-89.6l0.8,0.3c0.3,4.3-0.6,8.9-0.7,13.3c-0.2,9.3,0,18.6,0.4,27.9c1.6,34.6,8,68.6,15.4,102.4
			C94.8,583.4,87.5,582.3,78,578.4z"/>
		<path class="st35" d="M262.2,539.7c-0.7,0.5-1.4,1-2.2,1.4c-0.7,0.5-1.5,0.9-2.2,1.3c-0.7,0.4-1.5,0.8-2.3,1.2s-1.5,0.8-2.3,1.1
			c-0.8,0.4-1.6,0.7-2.4,1c-0.8,0.3-1.6,0.6-2.4,0.9c-0.8,0.3-1.6,0.5-2.5,0.8c-0.8,0.2-1.7,0.5-2.5,0.7s-1.7,0.4-2.5,0.6
			c-0.8,0.2-1.7,0.3-2.6,0.4s-1.7,0.2-2.6,0.3c-0.9,0.1-1.7,0.2-2.6,0.2c-0.9,0-1.7,0.1-2.6,0.1c-0.9,0-1.7,0-2.6,0
			s-1.7-0.1-2.6-0.2c-0.9-0.1-1.7-0.2-2.6-0.3c-0.5-0.1-1-0.2-1.5-0.2c-0.5-0.1-1-0.2-1.5-0.3s-1-0.2-1.5-0.3s-1-0.2-1.5-0.4
			c-0.5-0.1-1-0.3-1.5-0.4c-0.5-0.1-1-0.3-1.5-0.4c-0.5-0.1-1-0.3-1.5-0.5s-1-0.3-1.5-0.5s-1-0.4-1.5-0.5c-0.5-0.2-1-0.4-1.5-0.6
			c-0.5-0.2-1-0.4-1.4-0.6c-0.5-0.2-1-0.4-1.4-0.6c-0.5-0.2-0.9-0.4-1.4-0.7c-0.5-0.2-0.9-0.5-1.4-0.7s-0.9-0.5-1.4-0.7
			c-0.5-0.3-0.9-0.5-1.4-0.8c-0.4-0.3-0.9-0.5-1.3-0.8s-0.9-0.6-1.3-0.8c-0.4-0.3-0.9-0.6-1.3-0.9c-0.4-0.3-0.9-0.6-1.3-0.9
			c-0.4-0.3-0.8-0.6-1.3-0.9c-0.4-0.3-0.8-0.6-1.2-1c-0.4-0.3-0.8-0.7-1.2-1c-0.4-0.3-0.8-0.7-1.2-1c-0.4-0.3-0.8-0.7-1.2-1.1
			c-0.4-0.4-0.8-0.7-1.1-1.1c-0.4-0.4-0.7-0.7-1.1-1.1c-0.4-0.4-0.7-0.8-1.1-1.1c-0.4-0.4-0.7-0.8-1-1.2s-0.7-0.8-1-1.2
			s-0.7-0.8-1-1.2s-0.6-0.8-1-1.2c-12-16-16.5-34.9-13.5-54.6c2.5-16.9,12.3-31.9,26-41.9c10.5-7.8,24.9-12.3,37.9-10.8
			c16.2,1.9,31.7,11.7,41.6,24.4c0.4,0.5,0.7,1,1.1,1.4c0.4,0.5,0.7,1,1.1,1.5c0.3,0.5,0.7,1,1,1.5s0.7,1,1,1.5s0.6,1,0.9,1.5
			c0.3,0.5,0.6,1,0.9,1.6c0.3,0.5,0.6,1.1,0.9,1.6c0.3,0.5,0.6,1.1,0.8,1.6c0.3,0.5,0.5,1.1,0.8,1.6s0.5,1.1,0.8,1.6
			c0.2,0.6,0.5,1.1,0.7,1.7s0.5,1.1,0.7,1.7s0.4,1.1,0.6,1.7c0.2,0.6,0.4,1.1,0.6,1.7c0.2,0.6,0.4,1.1,0.5,1.7
			c0.2,0.6,0.3,1.2,0.5,1.7s0.3,1.2,0.5,1.7c0.1,0.6,0.3,1.2,0.4,1.8c0.1,0.6,0.3,1.2,0.4,1.8c0.1,0.6,0.2,1.2,0.3,1.8
			c0.1,0.6,0.2,1.2,0.3,1.8c0.1,0.6,0.2,1.2,0.2,1.8c0.1,0.6,0.1,1.2,0.2,1.8c0.1,0.6,0.1,1.2,0.1,1.8c0,0.6,0.1,1.2,0.1,1.8
			c0,0.6,0,1.2,0.1,1.8c0,0.6,0,1.2,0,1.8c0,0.6,0,1.2,0,1.8c0,0.6,0,1.2-0.1,1.8c0,0.6-0.1,1.2-0.1,1.8c0,0.6-0.1,1.2-0.2,1.8
			c-0.1,0.6-0.1,1.2-0.2,1.8C285.4,514.2,276.5,528.6,262.2,539.7z M195,432.8c-0.4,0.3-0.8,0.6-1.2,1c-0.4,0.3-0.8,0.7-1.2,1
			c-0.4,0.3-0.8,0.7-1.1,1c-0.4,0.3-0.7,0.7-1.1,1.1s-0.7,0.7-1.1,1.1s-0.7,0.7-1,1.1s-0.7,0.8-1,1.1c-0.3,0.4-0.7,0.8-1,1.2
			c-0.3,0.4-0.6,0.8-1,1.2c-0.3,0.4-0.6,0.8-0.9,1.2c-0.3,0.4-0.6,0.8-0.9,1.2c-0.3,0.4-0.6,0.8-0.9,1.3c-0.3,0.4-0.6,0.8-0.8,1.3
			c-0.3,0.4-0.5,0.9-0.8,1.3s-0.5,0.9-0.8,1.3s-0.5,0.9-0.7,1.3s-0.5,0.9-0.7,1.4s-0.5,0.9-0.7,1.4s-0.4,0.9-0.6,1.4
			s-0.4,0.9-0.6,1.4s-0.4,0.9-0.6,1.4s-0.4,1-0.5,1.4c-0.2,0.5-0.3,1-0.5,1.4c-0.2,0.5-0.3,1-0.5,1.5s-0.3,1-0.4,1.5s-0.3,1-0.4,1.5
			s-0.2,1-0.4,1.5c-0.1,0.5-0.2,1-0.3,1.5c-0.1,0.5-0.2,1-0.3,1.5s-0.2,1-0.3,1.5c-0.1,0.5-0.1,1-0.2,1.5s-0.1,1-0.2,1.5
			s-0.1,1.1-0.2,1.6c0,0.5-0.1,1.1-0.1,1.6s-0.1,1.1-0.1,1.6s0,1.1,0,1.6s0,1.1,0,1.6s0,1.1,0.1,1.6c0,0.5,0.1,1.1,0.1,1.6
			s0.1,1.1,0.1,1.6s0.1,1.1,0.2,1.6s0.1,1.1,0.2,1.6s0.2,1.1,0.2,1.6c0.1,0.5,0.2,1.1,0.3,1.6c0.1,0.5,0.2,1.1,0.3,1.6
			c0.1,0.5,0.2,1,0.4,1.6c0.1,0.5,0.3,1,0.4,1.6c0.1,0.5,0.3,1,0.4,1.6c0.2,0.5,0.3,1,0.5,1.5s0.3,1,0.5,1.5c0.2,0.5,0.4,1,0.6,1.5
			s0.4,1,0.6,1.5s0.4,1,0.6,1.5s0.4,1,0.7,1.5c0.2,0.5,0.5,1,0.7,1.5s0.5,1,0.7,1.4c0.3,0.5,0.5,0.9,0.8,1.4s0.5,0.9,0.8,1.4
			s0.6,0.9,0.8,1.4c0.3,0.5,0.6,0.9,0.9,1.4c0.3,0.4,0.6,0.9,0.9,1.3c0.3,0.4,0.6,0.9,0.9,1.3c0.3,0.4,0.6,0.9,1,1.3
			c0.3,0.4,0.7,0.8,1,1.3c9.8,12,23.4,19.6,38.9,21c12.4,1.2,25.3-2.8,35.2-10.3c12.1-9.4,19.7-24.4,21.6-39.5
			c0.1-0.5,0.1-1.1,0.2-1.6c0.1-0.5,0.1-1.1,0.1-1.6s0.1-1.1,0.1-1.6s0.1-1.1,0.1-1.6c0-0.6,0-1.1,0-1.7c0-0.5,0-1.1,0-1.6
			s0-1.1-0.1-1.6c0-0.5-0.1-1.1-0.1-1.6s-0.1-1.1-0.1-1.6c-0.1-0.5-0.1-1.1-0.2-1.6c-0.1-0.5-0.1-1.1-0.2-1.6
			c-0.1-0.5-0.2-1.1-0.3-1.6s-0.2-1.1-0.3-1.6s-0.2-1.1-0.3-1.6s-0.2-1.1-0.4-1.6c-0.1-0.5-0.3-1.1-0.4-1.6
			c-0.1-0.5-0.3-1.1-0.5-1.6s-0.3-1.1-0.5-1.6s-0.3-1-0.5-1.6c-0.2-0.5-0.4-1-0.6-1.5c-0.2-0.5-0.4-1-0.6-1.5
			c-0.2-0.5-0.4-1-0.6-1.5c-0.2-0.5-0.4-1-0.7-1.5s-0.5-1-0.7-1.5s-0.5-1-0.8-1.5s-0.5-1-0.8-1.4c-0.3-0.5-0.5-1-0.8-1.4
			c-0.3-0.5-0.6-0.9-0.9-1.4c-0.3-0.5-0.6-0.9-0.9-1.4c-0.3-0.5-0.6-0.9-0.9-1.4c-0.3-0.5-0.6-0.9-1-1.3c-0.3-0.4-0.7-0.9-1-1.3
			c-9-11.5-23.8-20-38.3-21.6C217.7,421.4,205.4,425.4,195,432.8z"/>
		<path class="st31" d="M260.8,533.6c-9.9,7.5-22.8,11.5-35.2,10.3c-15.5-1.5-29.1-9.1-38.9-21c-0.3-0.4-0.7-0.8-1-1.3
			c-0.3-0.4-0.7-0.9-1-1.3c-0.3-0.4-0.6-0.9-0.9-1.3c-0.3-0.4-0.6-0.9-0.9-1.3c-0.3-0.4-0.6-0.9-0.9-1.4s-0.6-0.9-0.8-1.4
			c-0.3-0.5-0.5-0.9-0.8-1.4s-0.5-0.9-0.8-1.4s-0.5-1-0.7-1.4c-0.2-0.5-0.5-1-0.7-1.5s-0.5-1-0.7-1.5s-0.4-1-0.6-1.5s-0.4-1-0.6-1.5
			s-0.4-1-0.6-1.5s-0.4-1-0.5-1.5c-0.2-0.5-0.3-1-0.5-1.5s-0.3-1-0.4-1.6c-0.1-0.5-0.3-1-0.4-1.6c-0.1-0.5-0.3-1-0.4-1.6
			c-0.1-0.5-0.2-1.1-0.3-1.6c-0.1-0.5-0.2-1.1-0.3-1.6c-0.1-0.5-0.2-1.1-0.2-1.6c-0.1-0.5-0.1-1.1-0.2-1.6s-0.1-1.1-0.2-1.6
			s-0.1-1.1-0.1-1.6s-0.1-1.1-0.1-1.6s0-1.1-0.1-1.6c0-0.5,0-1.1,0-1.6s0-1.1,0-1.6s0-1.1,0.1-1.6c0-0.5,0.1-1.1,0.1-1.6
			s0.1-1.1,0.2-1.6s0.1-1,0.2-1.5s0.1-1,0.2-1.5s0.2-1,0.3-1.5s0.2-1,0.3-1.5c0.1-0.5,0.2-1,0.3-1.5c0.1-0.5,0.2-1,0.4-1.5
			c0.1-0.5,0.3-1,0.4-1.5s0.3-1,0.4-1.5c0.2-0.5,0.3-1,0.5-1.5s0.3-1,0.5-1.4c0.2-0.5,0.4-1,0.5-1.4c0.2-0.5,0.4-0.9,0.6-1.4
			s0.4-0.9,0.6-1.4s0.4-0.9,0.6-1.4s0.4-0.9,0.7-1.4c0.2-0.5,0.5-0.9,0.7-1.4c0.2-0.4,0.5-0.9,0.7-1.3c0.3-0.4,0.5-0.9,0.8-1.3
			s0.5-0.9,0.8-1.3s0.6-0.9,0.8-1.3c0.3-0.4,0.6-0.8,0.9-1.3c0.3-0.4,0.6-0.8,0.9-1.2c0.3-0.4,0.6-0.8,0.9-1.2
			c0.3-0.4,0.6-0.8,1-1.2c0.3-0.4,0.7-0.8,1-1.2c0.3-0.4,0.7-0.8,1-1.1c0.3-0.4,0.7-0.7,1-1.1c0.4-0.4,0.7-0.7,1.1-1.1
			s0.7-0.7,1.1-1.1c0.4-0.3,0.7-0.7,1.1-1s0.8-0.7,1.2-1c0.4-0.3,0.8-0.7,1.2-1c10.4-7.4,22.8-11.3,35.5-9.9
			c14.5,1.6,29.4,10.1,38.3,21.6c0.3,0.4,0.7,0.9,1,1.3s0.6,0.9,1,1.3c0.3,0.5,0.6,0.9,0.9,1.4c0.3,0.5,0.6,0.9,0.9,1.4
			c0.3,0.5,0.6,0.9,0.9,1.4c0.3,0.5,0.6,0.9,0.8,1.4c0.3,0.5,0.5,1,0.8,1.4c0.3,0.5,0.5,1,0.8,1.5c0.2,0.5,0.5,1,0.7,1.5
			s0.5,1,0.7,1.5s0.4,1,0.6,1.5c0.2,0.5,0.4,1,0.6,1.5c0.2,0.5,0.4,1,0.6,1.5c0.2,0.5,0.4,1,0.5,1.6c0.2,0.5,0.3,1,0.5,1.6
			c0.2,0.5,0.3,1.1,0.5,1.6c0.1,0.5,0.3,1.1,0.4,1.6c0.1,0.5,0.3,1.1,0.4,1.6c0.1,0.5,0.2,1.1,0.3,1.6s0.2,1.1,0.3,1.6
			s0.2,1.1,0.3,1.6s0.2,1.1,0.2,1.6c0.1,0.5,0.1,1.1,0.2,1.6c0.1,0.5,0.1,1.1,0.1,1.6s0.1,1.1,0.1,1.6s0,1.1,0.1,1.6
			c0,0.6,0,1.1,0,1.6c0,0.6,0,1.1,0,1.7c0,0.5,0,1.1-0.1,1.6c0,0.5-0.1,1.1-0.1,1.6s-0.1,1.1-0.1,1.6c-0.1,0.5-0.1,1.1-0.2,1.6
			C280.5,509.2,272.9,524.2,260.8,533.6z M214.3,446.3c-5.3,5.1-8.9,11.1-9,18.6c-0.1,7.3,3.2,14.8,8.4,19.9
			c0.3,0.3,0.6,0.6,0.9,0.9s0.6,0.6,1,0.8c0.3,0.3,0.7,0.5,1,0.8c0.3,0.2,0.7,0.5,1,0.7c0.4,0.2,0.7,0.4,1.1,0.7
			c0.4,0.2,0.7,0.4,1.1,0.6s0.8,0.4,1.1,0.5s0.8,0.3,1.2,0.5c0.4,0.2,0.8,0.3,1.2,0.4c0.4,0.1,0.8,0.3,1.2,0.4s0.8,0.2,1.2,0.3
			c0.4,0.1,0.8,0.2,1.2,0.2s0.8,0.1,1.2,0.2c0.4,0,0.8,0.1,1.3,0.1c0.4,0,0.8,0,1.3,0c0.4,0,0.8,0,1.3,0c5.9-0.2,10.9-2.5,15.4-6.2
			c5.2-5.3,8.3-11.8,8.1-19.4c-0.2-7.3-3.9-14.6-9.3-19.5c-4.8-4.3-10.8-6.9-17.3-6.5C223.3,440.7,218.9,443.2,214.3,446.3z"/>
		<path class="st35" d="M247.4,485.8c-4.5,3.6-9.6,5.9-15.4,6.2c-0.4,0-0.8,0-1.3,0c-0.4,0-0.8,0-1.3,0c-0.4,0-0.8-0.1-1.3-0.1
			c-0.4,0-0.8-0.1-1.2-0.2s-0.8-0.1-1.2-0.2c-0.4-0.1-0.8-0.2-1.2-0.3s-0.8-0.2-1.2-0.4c-0.4-0.1-0.8-0.3-1.2-0.4
			c-0.4-0.2-0.8-0.3-1.2-0.5s-0.8-0.4-1.1-0.5c-0.4-0.2-0.7-0.4-1.1-0.6s-0.7-0.4-1.1-0.7c-0.4-0.2-0.7-0.5-1-0.7s-0.7-0.5-1-0.8
			s-0.6-0.5-1-0.8c-0.3-0.3-0.6-0.6-0.9-0.9c-5.2-5.1-8.6-12.6-8.4-19.9c0.1-7.6,3.7-13.6,9-18.6c4.6-3.1,9-5.6,14.7-5.9
			c6.5-0.3,12.5,2.2,17.3,6.5c5.4,4.9,9.1,12.2,9.3,19.5C255.7,474,252.6,480.5,247.4,485.8z"/>
		<path class="st39" d="M632.2,353.6c-8.7-25.7-33.7-64.9-50.5-86.6l1.6,0.7c1.3-0.7,2.7-2,4.2-2.4c7.3-2,20.1,2.9,27.1,5.2
			c27.8,9.3,57.8,25.3,81.2,43c-12.1,7.5-24.7,14.1-37.2,21c-6.3,3.5-13.3,6.7-19,11.2C636.8,347.9,634.5,350.8,632.2,353.6z"/>
		<path class="st35" d="M537.3,451.5c-12.8,7.8-26,11.2-41,8.8c-0.5-0.1-1.1-0.2-1.6-0.3c-0.5-0.1-1.1-0.2-1.6-0.3
			c-0.5-0.1-1.1-0.2-1.6-0.3c-0.5-0.1-1.1-0.2-1.6-0.4c-0.5-0.1-1-0.3-1.6-0.4c-0.5-0.1-1-0.3-1.6-0.5c-0.5-0.2-1-0.3-1.5-0.5
			s-1-0.4-1.5-0.5c-0.5-0.2-1-0.4-1.5-0.6s-1-0.4-1.5-0.6s-1-0.4-1.5-0.7c-0.5-0.2-1-0.5-1.5-0.7s-1-0.5-1.5-0.7s-1-0.5-1.4-0.8
			c-0.5-0.3-0.9-0.5-1.4-0.8s-0.9-0.5-1.4-0.8s-0.9-0.6-1.4-0.9s-0.9-0.6-1.3-0.9c-0.4-0.3-0.9-0.6-1.3-0.9c-0.4-0.3-0.9-0.6-1.3-1
			c-0.4-0.3-0.9-0.7-1.3-1c-0.4-0.3-0.8-0.7-1.3-1c-0.4-0.3-0.8-0.7-1.2-1.1s-0.8-0.7-1.2-1.1s-0.8-0.7-1.2-1.1s-0.8-0.8-1.1-1.2
			c-0.4-0.4-0.7-0.8-1.1-1.2c-0.4-0.4-0.7-0.8-1.1-1.2c-0.4-0.4-0.7-0.8-1.1-1.2c-0.3-0.4-0.7-0.8-1-1.3c-0.3-0.4-0.7-0.9-1-1.3
			s-0.6-0.9-1-1.3c-0.3-0.5-0.6-0.9-1-1.4c-0.3-0.5-0.6-0.9-0.9-1.4c-0.3-0.5-0.6-0.9-0.9-1.4c-0.3-0.5-0.6-1-0.8-1.4
			c-0.3-0.5-0.5-1-0.8-1.5s-0.5-1-0.8-1.5s-0.5-1-0.7-1.5s-0.5-1-0.7-1.5s-0.5-1-0.7-1.5s-0.4-1-0.6-1.5c-0.2-0.5-0.4-1-0.6-1.6
			c-0.2-0.5-0.4-1-0.6-1.6s-0.3-1.1-0.5-1.6s-0.3-1.1-0.5-1.6s-0.3-1.1-0.4-1.6c-0.1-0.5-0.3-1.1-0.4-1.6c-0.1-0.5-0.2-1.1-0.4-1.6
			c-0.1-0.5-0.2-1.1-0.3-1.6s-0.2-1.1-0.3-1.6s-0.2-1.1-0.2-1.7c-0.1-0.6-0.1-1.1-0.2-1.7c-0.1-0.6-0.1-1.1-0.1-1.7
			s-0.1-1.1-0.1-1.7s-0.1-1.1-0.1-1.7s0-1.1,0-1.7s0-1.1,0-1.7s0-1.1,0.1-1.7c0-0.6,0.1-1.1,0.1-1.7s0.1-1.1,0.1-1.7
			c0.1-0.6,0.1-1.1,0.2-1.7c0.1-0.6,0.1-1.1,0.2-1.7c0.1-0.5,0.2-1.1,0.3-1.6c2.9-17.1,11.2-29.2,25.2-39.1
			c11-8.3,26.4-11.8,39.9-9.9c18.3,2.6,32.6,12,43.5,26.6c10.7,14.3,15.6,31.3,12.9,49.1C560.3,427.9,551.8,440.8,537.3,451.5z
			 M471.1,348c-13.7,9.6-21.1,21.9-24,38.4c-2.7,15.6,1.7,31.9,10.9,44.6c0.3,0.4,0.6,0.8,0.9,1.2c0.3,0.4,0.6,0.8,0.9,1.1
			c0.3,0.4,0.6,0.8,0.9,1.1c0.3,0.4,0.6,0.7,0.9,1.1c0.3,0.4,0.6,0.7,1,1.1c0.3,0.4,0.7,0.7,1,1.1c0.3,0.3,0.7,0.7,1,1s0.7,0.7,1,1
			c0.4,0.3,0.7,0.7,1.1,1c0.4,0.3,0.7,0.6,1.1,0.9c0.4,0.3,0.7,0.6,1.1,0.9c0.4,0.3,0.8,0.6,1.1,0.9c0.4,0.3,0.8,0.6,1.2,0.9
			s0.8,0.6,1.2,0.8c0.4,0.3,0.8,0.5,1.2,0.8s0.8,0.5,1.2,0.8s0.8,0.5,1.2,0.7s0.8,0.5,1.3,0.7s0.8,0.5,1.3,0.7
			c0.4,0.2,0.9,0.4,1.3,0.7c0.4,0.2,0.9,0.4,1.3,0.6c0.4,0.2,0.9,0.4,1.3,0.6c0.4,0.2,0.9,0.4,1.3,0.6c0.4,0.2,0.9,0.4,1.4,0.5
			c0.5,0.2,0.9,0.3,1.4,0.5s0.9,0.3,1.4,0.5c0.5,0.1,0.9,0.3,1.4,0.4s0.9,0.3,1.4,0.4s0.9,0.2,1.4,0.3c0.5,0.1,0.9,0.2,1.4,0.3
			c0.5,0.1,0.9,0.2,1.4,0.3c0.5,0.1,1,0.2,1.4,0.2c14.1,2.3,26.5-1.1,38.5-8.6c12.8-9.5,20.5-21.3,22.7-37.3c0.1-0.5,0.1-1,0.2-1.5
			c0.1-0.5,0.1-1,0.2-1.5c0-0.5,0.1-1,0.1-1.5s0.1-1,0.1-1.5s0-1,0-1.5s0-1,0-1.5s0-1,0-1.5s0-1-0.1-1.5c0-0.5-0.1-1-0.1-1.5
			s-0.1-1-0.1-1.5c-0.1-0.5-0.1-1-0.2-1.5s-0.1-1-0.2-1.5c-0.1-0.5-0.2-1-0.2-1.5c-0.1-0.5-0.2-1-0.3-1.4c-0.1-0.5-0.2-1-0.3-1.4
			c-0.1-0.5-0.2-1-0.4-1.4c-0.1-0.5-0.3-0.9-0.4-1.4s-0.3-0.9-0.4-1.4s-0.3-0.9-0.5-1.4c-0.2-0.5-0.3-0.9-0.5-1.4
			c-0.2-0.5-0.3-0.9-0.5-1.4c-0.2-0.5-0.4-0.9-0.6-1.4c-0.2-0.5-0.4-0.9-0.6-1.3c-0.2-0.4-0.4-0.9-0.6-1.3c-0.2-0.4-0.4-0.9-0.7-1.3
			c-0.2-0.4-0.5-0.9-0.7-1.3c-0.2-0.4-0.5-0.9-0.7-1.3c-0.2-0.4-0.5-0.8-0.8-1.3c-0.3-0.4-0.5-0.8-0.8-1.2c-0.3-0.4-0.5-0.8-0.8-1.2
			c-0.3-0.4-0.6-0.8-0.8-1.2c-0.2-0.4-0.6-0.8-0.9-1.2c-9.9-13.1-23.4-22.5-39.9-24.6C493.7,338.2,481.7,341.1,471.1,348z"/>
		<path class="st31" d="M534.9,446.1c-12,7.5-24.3,10.9-38.5,8.6c-0.5-0.1-1-0.2-1.4-0.2c-0.5-0.1-0.9-0.2-1.4-0.3
			c-0.5-0.1-0.9-0.2-1.4-0.3c-0.5-0.1-0.9-0.2-1.4-0.3c-0.5-0.1-0.9-0.2-1.4-0.4c-0.5-0.1-0.9-0.3-1.4-0.4s-0.9-0.3-1.4-0.5
			s-0.9-0.3-1.4-0.5s-0.9-0.3-1.4-0.5c-0.4-0.2-0.9-0.4-1.3-0.6c-0.4-0.2-0.9-0.4-1.3-0.6c-0.4-0.2-0.9-0.4-1.3-0.6
			c-0.4-0.2-0.9-0.4-1.3-0.7c-0.4-0.2-0.9-0.4-1.3-0.7s-0.8-0.5-1.3-0.7c-0.4-0.2-0.8-0.5-1.2-0.7c-0.4-0.3-0.8-0.5-1.2-0.8
			s-0.8-0.5-1.2-0.8s-0.8-0.6-1.2-0.8c-0.4-0.3-0.8-0.6-1.2-0.9s-0.8-0.6-1.1-0.9c-0.4-0.3-0.7-0.6-1.1-0.9
			c-0.4-0.3-0.7-0.6-1.1-0.9c-0.4-0.3-0.7-0.6-1.1-1c-0.4-0.3-0.7-0.7-1-1s-0.7-0.7-1-1s-0.7-0.7-1-1.1s-0.7-0.7-1-1.1
			s-0.6-0.7-0.9-1.1c-0.3-0.4-0.6-0.7-0.9-1.1c-0.3-0.4-0.6-0.8-0.9-1.1c-0.3-0.4-0.6-0.8-0.9-1.2c-9.2-12.8-13.6-29.1-10.9-44.6
			c2.9-16.5,10.4-28.8,24-38.4c10.5-6.9,22.5-9.8,35.1-8.2c16.5,2.1,30,11.5,39.9,24.6c0.3,0.4,0.6,0.8,0.9,1.2s0.6,0.8,0.8,1.2
			c0.3,0.4,0.5,0.8,0.8,1.2c0.3,0.4,0.5,0.8,0.8,1.2c0.3,0.4,0.5,0.8,0.8,1.3c0.2,0.4,0.5,0.9,0.7,1.3c0.2,0.4,0.5,0.9,0.7,1.3
			c0.2,0.4,0.4,0.9,0.7,1.3c0.2,0.4,0.4,0.9,0.6,1.3s0.4,0.9,0.6,1.3c0.2,0.5,0.4,0.9,0.6,1.4s0.4,0.9,0.5,1.4
			c0.2,0.5,0.3,0.9,0.5,1.4c0.2,0.5,0.3,0.9,0.5,1.4c0.1,0.5,0.3,0.9,0.4,1.4c0.1,0.5,0.3,0.9,0.4,1.4c0.1,0.5,0.2,1,0.4,1.4
			c0.1,0.5,0.2,1,0.3,1.4c0.1,0.5,0.2,1,0.3,1.4c0.1,0.5,0.2,1,0.2,1.5c0.1,0.5,0.1,1,0.2,1.5c0.1,0.5,0.1,1,0.2,1.5s0.1,1,0.1,1.5
			s0.1,1,0.1,1.5s0.1,1,0.1,1.5s0,1,0,1.5s0,1,0,1.5s0,1,0,1.5s0,1-0.1,1.5c0,0.5-0.1,1-0.1,1.5s-0.1,1-0.2,1.5
			c-0.1,0.5-0.1,1-0.2,1.5C555.4,424.8,547.7,436.6,534.9,446.1z M485.8,359.1c-5.3,5.7-8.8,11.9-8.5,20.1c0.3,7.5,4,14.5,9.5,19.4
			c4.8,4.3,10.8,6.6,17.2,6.1c5.3-0.4,9.5-2.6,13.8-5.5c5.1-5,8.4-10.7,8.5-18.1c0.2-7.3-2.7-15-7.9-20.1c-4.8-4.7-11.2-7.1-17.8-7
			C494.9,354.1,490.4,356,485.8,359.1z"/>
		<path class="st40" d="M710.3,379.5c-9-17-16-38.4-17.3-57.6c13.2-7.2,33.7-17,45-26.1c8-6.5,13.7-15.3,19.3-23.9
			c14.1-21.4,25.6-44.2,37.5-66.9c6.5-12.5,13-26.5,21.4-37.7c4,41.6,26.9,101.2,45.6,138.2c8.9,17.7,19.1,34.6,29.4,51.5
			c-2.8-0.2-5.5-0.4-8.3-0.6s-5.5-0.3-8.3-0.4s-5.5-0.2-8.3-0.2s-5.5-0.1-8.3,0c-2.8,0-5.5,0.1-8.3,0.1c-2.8,0.1-5.5,0.2-8.3,0.3
			c-2.8,0.1-5.5,0.3-8.3,0.5s-5.5,0.4-8.3,0.7c-2.8,0.3-5.5,0.6-8.2,0.9s-5.5,0.7-8.2,1.1s-5.5,0.8-8.2,1.2
			c-2.7,0.4-5.4,0.9-8.2,1.4c-2.7,0.5-5.4,1-8.1,1.6s-5.4,1.2-8.1,1.8c-2.7,0.6-5.4,1.3-8.1,2s-5.3,1.4-8,2.2
			c-16,4.4-31,9.2-45.6,17.1C713,384.1,711.8,381.8,710.3,379.5z"/>
		<path class="st39" d="M950.2,423.3c-9-4.9-16.4-16-22.5-24c-2.6-3.4-5.2-6.9-7.8-10.4c-2.6-3.5-5.1-7-7.6-10.6s-4.9-7.1-7.3-10.8
			c-2.4-3.6-4.8-7.3-7.1-10.9c-2.3-3.7-4.6-7.4-6.9-11.1c-2.2-3.7-4.5-7.5-6.6-11.2c-2.2-3.8-4.3-7.6-6.4-11.4s-4.1-7.6-6.1-11.5
			s-3.9-7.7-5.9-11.6c-1.9-3.9-3.8-7.8-5.6-11.8c-1.8-3.9-3.6-7.9-5.3-11.9c-1.7-4-3.4-8-5.1-12c-1.6-4-3.3-8.1-4.8-12.1
			c-1.6-4.1-3.1-8.1-4.5-12.2c-1.5-4.1-2.9-8.2-4.3-12.3s-2.7-8.2-4-12.4c-4.6-14.6-10.9-32.4-8.9-47.8c7.9,2.5,20,19.8,25.1,26.6
			c14,18.8,26.1,39.3,37.8,59.6c25,43.4,48.4,88.4,61.4,137.1c2.3,8.4,6.2,20.3,4.6,28.9C952.2,421.3,951.7,422.3,950.2,423.3z"/>
		<path class="st35" d="M517.8,399.3c-4.3,2.9-8.5,5.1-13.8,5.5c-6.4,0.5-12.5-1.8-17.2-6.1c-5.5-5-9.3-11.9-9.5-19.4
			c-0.3-8.2,3.2-14.3,8.5-20.1c4.7-3.1,9.2-5,14.9-5.1c6.6-0.1,13.1,2.3,17.8,7c5.2,5.2,8.1,12.8,7.9,20.1
			C526.2,388.6,522.9,394.2,517.8,399.3z"/>
		<path class="st34" d="M80.7,631.9c0.7-2.6,0.6-4.8,0.6-7.4c0.1-8.5,2.5-13.8,7.9-20.2c0.7-0.5,1.6-1.2,2.5-1.4
			c6.8-1.2,19,11.1,22.8,16.1c3.2,4.2,5.5,9.1,9,13.1c4.4,5,9.8,9.5,14.7,14.1c-2,7.1-3.3,14.4-5.4,21.4c-5.9,19.3-15,37-25.4,54.2
			l-5.8-2.8c-8.3-4.2-18.5-8.3-25.4-14.5c-4.3-3.8-6.6-9.2-6.9-15c-0.3-8.2,4.3-14.2,9.5-19.8c-2.6-1.8-4.6-3.6-6.8-5.9
			c-1.2-5-1-9.3,0.9-14.1c3.5-8.8,9.6-12.9,18-16.5C87.5,632.4,84.2,632,80.7,631.9z"/>
		<path class="st32" d="M488.6,617.6c-4.1,3.6-8.5,6.9-13,9.9c-23.5,15.3-87.3,34.5-115.6,28.3c-18.2-4-29.4-16.9-39-32
			c-11.7-18.4-32.7-59.2-27.7-80.7c3.6-15.7,19.2-25.1,31.9-33c31.1-18.7,75.5-31,111.7-32.7c15.1-0.7,35.8-0.1,47.6,11.1
			c13.6,12.9,19.5,55.6,20,74.6C505,583.8,503.5,601.9,488.6,617.6z M338.2,537.6c-2.7,3.5-4.6,7.2-4.2,11.7
			c0.3,3.2,1.9,6.3,4.5,8.3c3.1,2.5,6.6,3,10.5,2.4c0.9-0.1,1.8-0.3,2.6-0.5c4.5,19.6,11.1,53.6,28.8,64.6
			c10.5,6.5,23.9,6.2,35.5,3.4c10.2-2.5,21.3-8.1,26.9-17.4c7.7-12.8,5.2-33.1,3.3-47.3c-1.4-10.1-3.8-20-5.3-30.1
			c4.3-2,7.7-3.7,9.4-8.5c1.3-3.5,0.8-7.6-0.9-10.9c-1-2.1-2.8-4.2-5.1-4.8c-1.3-0.3-2.1,0.2-3.2,0.9l-0.2,1.2
			c0.9,1.2,1.7,2.1,2.8,3.1c1.9,1.8,2.7,3.5,2.7,6.1c0,2.1-1,3.9-2.5,5.3c-6.8,6-24.6,6.4-33.2,5.6c-5.9-0.5-10.6-1.9-15.1-5.9
			c-12,13.6-22.9,20.8-39.9,27.4c-2.7,1-7.1,3.2-10,3.1c-2.1,0-3.5-1-4.9-2.5c-1.3-1.5-2.1-3.1-2-5.1c0.3-5.2,8.9-7.6,8.2-11.9
			c-1.2-0.9-1.8-1.1-3.3-0.8C341.6,535.6,339.8,536.6,338.2,537.6z"/>
		<path class="st39" d="M643,420.8c-8.2-17.5-14.9-38.8-7.9-57.8c1.5-4.1,3.6-8.1,6.7-11.3c7-7.2,35.4-21.1,45.8-27
			c2.2,21.6,10.4,43.9,20.6,63c-12.7,6.5-25.4,13.1-37.9,19.8c-8.4,4.6-17.1,10.4-25.9,14L643,420.8z"/>
		<path class="st31" d="M351.6,559.6c-0.9,0.2-1.8,0.3-2.6,0.5c-3.8,0.6-7.3,0-10.5-2.4c-2.6-2-4.1-5.1-4.5-8.3
			c-0.5-4.6,1.4-8.3,4.2-11.7c1.7-1,3.5-2.1,5.4-2.4c1.5-0.3,2.1-0.1,3.3,0.8c0.7,4.3-7.9,6.8-8.2,11.9c-0.1,2,0.7,3.7,2,5.1
			c1.4,1.5,2.8,2.4,4.9,2.5c2.9,0.1,7.3-2.1,10-3.1c17-6.5,27.9-13.8,39.9-27.4c4.5,4,9.2,5.3,15.1,5.9c8.6,0.8,26.4,0.4,33.2-5.6
			c1.5-1.4,2.5-3.2,2.5-5.3c0-2.6-0.8-4.4-2.7-6.1c-1.1-1-1.9-2-2.8-3.1l0.2-1.2c1-0.7,1.9-1.2,3.2-0.9c2.4,0.5,4.1,2.7,5.1,4.8
			c1.7,3.3,2.1,7.4,0.9,10.9c-1.7,4.8-5.1,6.5-9.4,8.5c1.6,10.1,4,20,5.3,30.1c1.9,14.2,4.4,34.5-3.3,47.3
			c-5.6,9.3-16.6,14.9-26.9,17.4c-11.6,2.8-25.1,3.1-35.5-3.4C362.8,613.3,356.1,579.2,351.6,559.6z M355.5,557.8
			c2.9,12.9,6.4,26.4,11.2,38.7c3.9,10.3,8.4,20.4,19.1,25.1c10.7,4.8,25.5,3.5,36.2-0.7c7.5-3,15.6-8.6,18.8-16.2
			c4.4-10.5,3.1-24.8,1.7-35.9c-1.2-11.5-3.8-23.3-5.7-34.7c-13.5,2.2-28.6,4.5-41-2.4C386,545.5,370.8,552.1,355.5,557.8z"/>
		<path class="st39" d="M140.2,648.6c13.6,8.4,24.8,20.7,40.7,25c8.1,2.2,16.5,3,24.7,4.7c-8,29.1-17.4,56-36.2,80
			c-3.5-1.1-7.4-3.7-10.7-5.4c-17-8.9-33.9-18.5-49.5-29.6C126.2,698.1,133.6,678.2,140.2,648.6z"/>
		<path class="st32" d="M928.9,321.9c-5.9-10.7-10.4-22.4-15.9-33.3c-7.9-15.5-17-30.4-25.6-45.5c0.3,0,0.7,0,1,0
			c10.3,0.5,24.3,13,30.3,20.6c9.8,12.3,15.6,28.7,13.8,44.4C932,312.9,930.5,317.4,928.9,321.9z"/>
		<path class="st41" d="M366.7,596.6c-4.7-12.4-8.3-25.8-11.2-38.7c15.3-5.7,30.5-12.4,40.2-26.1c12.5,6.8,27.6,4.6,41,2.4
			c1.9,11.5,4.5,23.2,5.7,34.7c-1.7-0.3-3.3-0.5-5-0.6c-1.7-0.2-3.3-0.3-5-0.3c-1.7-0.1-3.3-0.1-5-0.1s-3.3,0.1-5,0.2
			c-1.7,0.1-3.3,0.3-5,0.5s-3.3,0.4-5,0.7c-1.6,0.3-3.3,0.6-4.9,1c-1.6,0.4-3.2,0.8-4.8,1.3C389.2,575.4,373.6,583.7,366.7,596.6z"
			/>
		<path class="st33" d="M751.5,438.3c-14-15.5-24.1-27-34.4-45.4c-2.4-4.3-5-8.8-6.8-13.4c1.4,2.3,2.7,4.6,3.9,7
			c14.6-7.9,29.6-12.8,45.6-17.1c2.7-0.7,5.3-1.5,8-2.2s5.4-1.3,8.1-2c2.7-0.6,5.4-1.2,8.1-1.8c2.7-0.6,5.4-1.1,8.1-1.6
			s5.4-1,8.2-1.4c2.7-0.4,5.5-0.9,8.2-1.2c2.7-0.4,5.5-0.7,8.2-1.1c2.7-0.3,5.5-0.6,8.2-0.9c2.8-0.3,5.5-0.5,8.3-0.7
			s5.5-0.4,8.3-0.5s5.5-0.2,8.3-0.3c2.8-0.1,5.5-0.1,8.3-0.1s5.5,0,8.3,0s5.5,0.1,8.3,0.2s5.5,0.3,8.3,0.4c2.8,0.2,5.5,0.4,8.3,0.6
			c15.2,24.3,32,48.3,51.8,69.2c-33.8-10.4-107.7-21.7-141.9-11.4c-7.6,2.3-14.7,6.3-21.8,9.9L751.5,438.3z"/>
		<path class="st36" d="M700.3,464.5c-7.2,0.1-14-0.9-20.5-3.9c-13.6-6.3-23.1-17.1-31.1-29.5c-2.1-3.3-4.4-6.6-5.8-10.3l1.2,0.7
			c8.8-3.7,17.5-9.4,25.9-14c12.6-6.7,25.2-13.3,37.9-19.8c10.3,19.6,21.8,37.4,37.4,53.3C730.2,448.6,715.2,456.1,700.3,464.5z"/>
		<path class="st35" d="M205.6,678.4c21,3.8,48.2,6.5,69.5,5.6c-0.5,9-4.4,19.1-6.8,27.8c-3.9,14.3-7.8,28.8-11.1,43.3
			c-1.4,6.2-2.5,12.4-3.2,18.7c-0.5,4.6-0.8,9.4-1.8,13.9c-29.1-4.7-56.9-15.2-82.7-29.2C188.2,734.3,197.6,707.4,205.6,678.4z"/>
		<path class="st42" d="M366.7,596.6c6.9-12.9,22.5-21.2,36.1-25.2c1.6-0.5,3.2-0.9,4.8-1.3c1.6-0.4,3.3-0.7,4.9-1
			c1.6-0.3,3.3-0.5,5-0.7s3.3-0.3,5-0.5c1.7-0.1,3.3-0.2,5-0.2s3.3,0,5,0.1s3.3,0.2,5,0.3c1.7,0.2,3.3,0.4,5,0.6
			c1.5,11.1,2.7,25.4-1.7,35.9c-3.2,7.7-11.2,13.3-18.8,16.2c-10.7,4.3-25.4,5.5-36.2,0.7C375,616.9,370.6,606.9,366.7,596.6z"/>
		<path class="st43" d="M275.1,683.9l7.4,0.1c-8.1,26.4-14.6,52.9-20.8,79.8c-1.5,6.4-3.2,22.6-6.4,26.7c-0.3-1-0.4-1.8-1.1-2.6
			c-0.6-0.6-1.2-0.4-2.1-0.4c1-4.5,1.2-9.3,1.8-13.9c0.7-6.3,1.8-12.5,3.2-18.7c3.3-14.5,7.2-29,11.1-43.3
			C270.7,703,274.6,692.9,275.1,683.9z"/>
		<path class="st35" d="M255.3,790.6c3.3-4.1,5-20.4,6.4-26.7c6.2-26.9,12.6-53.4,20.8-79.8c4.6-0.2,9.2-0.6,13.8-0.6
			c6.4,2.4,12.7,5.3,19.3,7c25.8,6.5,52.4,0.5,76.7-8.4c12.2,8.1,24.8,15.6,37.8,22.3c-4.6,16.7-6.1,34.1-7.1,51.3
			c-0.6,9.7-1.5,19.5-1.6,29.2c-0.2,12.2,0.7,24.4,1.2,36.5c0.7,16.5,1.2,32.9,2.2,49.4c0.3,5.5,0.6,10.9,0.7,16.4
			c0.1,4.2-0.3,8.6,0.3,12.8c-45.2,3.1-95.8-0.3-139.7-12c-7.9-2.1-15.6-5-23.4-7.6c-3-1.1-5.7-2.4-8.5-3.9
			C251.6,864,250.9,800.5,255.3,790.6z M304.2,734.7c-0.5,15.9,4.8,32.3,6.7,48.1c9.1,9,20.6,16.1,30.7,24
			c8-10.2,18.8-18.3,27.6-27.8c1.5-1.9,3.2-3.7,4.4-5.7l-1.7-46.2c-11.6,5.9-39.1,7.3-52.4,7.5C314.5,734.7,309,733.8,304.2,734.7z"
			/>
		<path class="st35" d="M647.6,535.8c14.9-21.9,28.9-42.1,29.7-69.9c8.5,3.5,14.9,5.5,24.1,4.1c3.9,8,6.9,16.4,10.7,24.4
			c-3,3.1-5.7,6.4-8.5,9.7l-5.8-6.2c-3.8,2.4-7.3,5.5-10.8,8.2L667.6,521C660.6,525.4,654.1,530.9,647.6,535.8z"/>
		<path class="st39" d="M296.4,683.5c0.2,0,0.4-0.1,0.6-0.2c7.7-1.7,16.4-1.2,24.3-1.8c15.4-1.2,31-2.7,46.3-4.9
			c59.1-8.5,104.6-22.8,157.5-50.2c11.1-5.8,21.6-12.6,32.6-18.4c-5.7,3.9-9.4,11.5-14.2,16.6c-14.6,15.6-40.5,31.2-61.7,36
			c-8.2,8.6-16.4,17-25.3,25c-7.5,6.7-15.8,13-22.7,20.1c-1.3-0.1-2.4-0.7-3.5-1.3c-13-6.7-25.6-14.1-37.8-22.3
			c-24.4,8.9-51,14.9-76.7,8.4C309,688.8,302.7,685.9,296.4,683.5z"/>
		<path class="st35" d="M746,463.2c-2.8,1-5.3,2-7.1,4.5c-0.4,1.7,0.2,3.3,0.8,4.8c4.3,11.8,10.5,23.4,15.7,34.9
			c5.6,12.3,10.7,25.8,17.6,37.3c1.6,2.6,4.3,5.5,7.5,6c0.7,0.1,0.8,0.1,1.4,0c2.2-0.2,4.3-0.8,6.4-1.4c3.2,6.7,6.4,13.3,8.6,20.4
			c-8.9,5-19.3,10.4-29.1,13.3c-7-8.6-20-29.1-23.8-39.3c2.7-7.8,3.7-16.6,2.2-24.7c-1.7-9-7.4-19.5-17.3-21.3
			c-3.1-0.5-7.8,0.4-10.4-1.3c-3.8-9.9-7.7-19.6-11.9-29.3c11.5-6,23.1-11.9,34.8-17.5C742.4,454.3,744.6,458.6,746,463.2z"/>
		<path class="st39" d="M781.9,550.8c-0.6,0.1-0.7,0.1-1.4,0c-3.2-0.5-6-3.4-7.5-6c-6.9-11.5-12-25.1-17.6-37.3
			c-5.2-11.5-11.4-23-15.7-34.9c-0.6-1.6-1.3-3.1-0.8-4.8c1.8-2.5,4.3-3.4,7.1-4.5c0.2,0.1,0.3,0.1,0.5,0.2
			c8.3,1.7,25.6-13.9,34.5-2.6c2.6,3.3,6,10.4,5.3,14.6c-0.3,2.2-1.5,4.1-2.5,6c-6.5,3.5-13,6.7-18.7,11.4l0.8-0.2
			c7.9-1.7,20-9.2,27.5-4.6c3.9,2.4,6.5,7.1,7.5,11.6c0.6,2.4,0.5,4.8-0.9,6.9c-2.6,3.8-11.7,6.5-15.8,8.6c-2.6,1.3-4.9,3-7.2,4.7
			c7.2-2.1,15.1-5.3,22.6-5.5c4.8,3.9,8.6,9.3,9,15.7c0.2,3-0.7,5.6-2.8,7.7C799.6,544.2,788.3,544.5,781.9,550.8z"/>
		<path class="st39" d="M661,532.8c12.1-9.1,24.5-18,36.2-27.6c12.3,16.2,24.3,32.5,36.1,49c8.3,11.7,16.2,23.9,25.3,35
			c-16.2,12-31.8,24.7-48.9,35.6C698.6,596.6,680.3,556.2,661,532.8z"/>
		<path class="st32" d="M707.2,510.1c3-4.7,6.6-8.5,10.7-12.2c0.6-0.5,0.4-0.7,0.5-1.5c2.5,1.8,7.2,0.8,10.4,1.3
			c9.9,1.7,15.6,12.3,17.3,21.3c1.5,8.2,0.5,16.9-2.2,24.7c-0.6,0.9-1.1,1.8-1.8,2.6c-1.4,1.8-2.6,3.4-5,3.7
			C732.5,546.3,712,517,707.2,510.1z"/>
		<path class="st35" d="M570.8,599.7c13-8.7,25.8-17.6,38.1-27.3c6.4-5.1,12.4-10.7,18.9-15.7c10.8-8.3,22.4-15.5,33.3-23.8
			c19.3,23.4,37.6,63.8,48.8,92c-27.6,19.5-66.9,38.1-99.5,47.2C598.3,644,588.8,624.4,570.8,599.7z"/>
		<path class="st32" d="M310.8,782.9c-1.9-15.8-7.2-32.2-6.7-48.1c4.8-1,10.3,0,15.2-0.1c13.3-0.2,40.8-1.6,52.4-7.5l1.7,46.2
			c-1.2,2-2.9,3.9-4.4,5.7c-8.8,9.5-19.6,17.6-27.6,27.8C331.4,799,319.9,791.9,310.8,782.9z M309.5,740.4
			c2.1,8.6,3.5,17.4,5.3,26.1c14.8,0.7,29.2-1,43.9-3.2c2.6-0.4,6.7-0.4,9-1.7c0.1-0.8,0.1-1.6,0.1-2.4c-0.3-8-0.9-16.1-0.6-24.2
			C347.7,739.2,329.5,741.1,309.5,740.4z M316.2,776c1.1,6.1,18.1,18.3,23.6,22.2c0.4,0.3,0.8,0.6,1.2,0.8l19.8-20.9l6.3-7.2
			c-12.6,1.7-25.3,2.1-37.9,3.4C325,774.8,320.3,774.9,316.2,776z"/>
		<path class="st36" d="M314.9,766.5c-1.8-8.7-3.2-17.4-5.3-26.1c20,0.7,38.1-1.2,57.7-5.4c-0.3,8,0.3,16.1,0.6,24.2
			c0,0.8,0,1.6-0.1,2.4c-2.2,1.3-6.4,1.3-9,1.7C344.1,765.4,329.7,767.2,314.9,766.5z"/>
		<path class="st43" d="M563.2,604.5c2.4-1.7,5.1-3.3,7.6-4.8c18,24.8,27.5,44.4,39.5,72.4l-5.5,1.3c-7.9-21.1-17.9-41.6-30.6-60.2
			c-2.2-3.2-4.7-7.6-8-9.7L563.2,604.5z"/>
		<path class="st35" d="M557.7,607.9c1.8-1.1,3.8-2.2,5.5-3.4l3-1.1c3.3,2.1,5.8,6.5,8,9.7c12.7,18.6,22.7,39.1,30.6,60.2
			c4.6,14.8,9,29.8,12.3,45c7.5,35.3,11.7,84.7,9.2,120.7c-4.6,3.2-9.3,6.2-14,9.2c-60.2,32.8-108.2,43.9-175.9,50.9
			c1.7-7.3-4.1-28.5-5.4-37.1c-2-12.1-2.2-24.4-2.9-36.7c-0.8-14-1.8-28.2-1.7-42.2c0.2-26.2,3.5-51.6,7.4-77.5
			c6.9-7.2,15.3-13.5,22.7-20.1c8.9-7.9,17.1-16.3,25.3-25c21.2-4.7,47.1-20.4,61.7-36C548.3,619.4,552,611.8,557.7,607.9z"/>
		<path class="st43" d="M430.2,704.4c1.2,0.5,2.2,1.1,3.5,1.3c-3.9,25.9-7.2,51.3-7.4,77.5c-0.1,14.1,0.9,28.2,1.7,42.2
			c0.7,12.2,0.9,24.6,2.9,36.7c1.4,8.6,7.2,29.8,5.4,37.1c-3.5,0.4-7,0.7-10.5,0.8c-0.6-4.2-0.2-8.6-0.3-12.8
			c-0.1-5.5-0.4-10.9-0.7-16.4c-1-16.5-1.5-32.9-2.2-49.4c-0.5-12.1-1.4-24.4-1.2-36.5c0.1-9.7,1-19.5,1.6-29.2
			C424.1,738.4,425.5,721.1,430.2,704.4z"/>
		<path class="st36" d="M341,799c-0.4-0.3-0.8-0.5-1.2-0.8c-5.5-3.9-22.5-16.1-23.6-22.2c4.1-1.1,8.8-1.2,13-1.6
			c12.6-1.3,25.3-1.7,37.9-3.4l-6.3,7.2L341,799z"/>
		<path class="st44" d="M262.7,880.3c7.7,2.7,15.5,5.5,23.4,7.6c43.9,11.8,94.6,15.1,139.7,12c3.5-0.2,7-0.4,10.5-0.8
			c67.7-7,115.7-18.1,175.9-50.9l-3,2.4c1.6,5.9,3.7,11.6,5.4,17.5c-4.8,0.9-16,8-21.2,10.6c-5,2.5-10.2,4.7-15.4,7
			c-33.2,14.4-79.5,29.3-115.3,33.3c-21.5,2.4-43.5,3.5-65.2,2.9c-6.6-0.2-13.2-1-19.8-1.5c-7.6-0.5-15.3-0.8-22.8-1.7
			c-22.3-2.9-67.5-11.1-86.7-21.3c-3.7-2-7.2-5.1-10.5-7.7C258.6,885.5,259.7,883.4,262.7,880.3z"/>
		<path class="st36" d="M241.8,918c5.2-9.5,11.6-18.3,15.9-28.3c3.3,2.6,6.8,5.7,10.5,7.7c19.2,10.2,64.4,18.4,86.7,21.3
			c7.5,1,15.2,1.2,22.8,1.7c6.6,0.5,13.2,1.3,19.8,1.5c21.6,0.6,43.7-0.5,65.2-2.9c35.8-4,82.1-18.9,115.3-33.3
			c5.2-2.2,10.3-4.5,15.4-7c5.2-2.6,16.5-9.8,21.2-10.6c6.9,21.8,13.1,43.9,18.5,66.1c-32.9,26.4-82.3,43.3-124.2,45.4
			c-2.5,0.1-5.7,0.6-7.6-1.2c-2.8-7.6-5.6-15.3-7.8-23.1c3.6-0.6,11.2-2.3,14.8-3.2c1.3-0.4,1.6-1.1,2.1-2.2
			c-0.3-1.6-0.4-1.9-1.5-3.1c-1.3-0.6-2.1-0.8-3.5-0.6c-5.2,0.8-10.3,2.7-15.4,3.7c-11.5,2.2-23.5,3.7-35.1,5.1
			c-14,1.7-27.6,1.6-41.7,2c-4.7,0.1-9.2,0.8-13.9,0.5c-0.3-1.3-0.5-2.7-1.3-3.8c-0.5-0.7-0.9-0.6-1.7-0.7c-1.4,0.6-2,1.5-2.9,2.7
			c-3,4.1-5.4,8.7-8,13c-6.1,9.6-12.2,19.2-18.3,28.8c-2.7,4.4-5.7,8.6-8.5,12.9c-4.2,0-8.3-0.2-12.5-0.6
			c-8.9-0.9-17.3-3.8-25.5-7.1c-34.4-13.8-64.1-39.3-87.5-67.7C235.3,929.1,238.6,923.5,241.8,918z"/>
	</g>
	<path class="st34" d="M212.1,983.5c1.4-11.1,11.7-33.4,17.3-43.5c2.3,0.6,12.3,13.8,14.9,16.5c23.7,24.4,54.5,47.7,87.8,56.6
		c6.6,1.8,13.3,2.5,20,3.2c-7.1,10.5-11.9,24.3-23.9,30c-15.8,6.2-36.6-1.2-51.6-7.3C250.4,1028.6,223.6,1010.4,212.1,983.5z"/>
	<path class="st38" d="M310.4,1123.8c5.1-3.5,10.8-6.3,16.1-9.6c5.2-3.1,10.2-6.5,15.1-10.1c4.9-3.6,9.5-7.5,14-11.5
		c39.3-35.1,55.1-78.3,57.9-129.8c8.8,0.6,17.9-0.2,26.7-0.9c1.4,17.8-3.7,41.2-9.2,58.3c-11.1,34.5-35,64.3-64.8,84.6
		c-10.1,6.8-20.9,12.5-31.8,18c-6.2,2.9-16.6,8.9-23.2,9.4l-0.8-0.8C310.1,1128.9,310.2,1126.4,310.4,1123.8z"/>
	<path class="st44" d="M508.6,999.3c-2.3-7-5.4-13.7-7.4-20.8c1.9,1.7,5.1,1.3,7.6,1.2c41.9-2.1,91.3-19,124.2-45.4
		c2.2,7.5,3.9,15.2,5.8,22.8C600.8,981.7,554.3,999.2,508.6,999.3z"/>
	<path class="st32" d="M232.2,1135.2c5.4-5,11.2-9.3,17.3-13.5c5.8-4.3,14.2-7.5,21.3-8.8c12.1-2.2,24,1,34.1,7.9
		c-0.3,2.6-0.4,5.4-0.3,8c0.2,3.6,0.8,7.6,3.8,9.9c1.8,1.5,3.7,1.1,5.9,0.8c-0.1,1.1-0.2,2.2-0.4,3.3c-0.2,1.1-0.4,2.2-0.7,3.2
		c-0.3,1.1-0.6,2.1-0.9,3.2c-0.3,1-0.7,2.1-1.2,3.1c-4.5,10.9-12.6,18.9-23.4,23.3c-14.7,5.4-29.9,4.7-45.2,2.3
		c5.2-6.4,12.1-14,13.9-22.2c0.8-3.4,0.3-6.8-1.6-9.8C250.3,1139.3,239.6,1136.9,232.2,1135.2z"/>
	<path class="st34" d="M508.6,999.3c45.7,0,92.3-17.5,130.2-42.2c2.1,10.9,9.1,36.5,5.1,45.8c-5.8,13.3-26.1,23-38.7,27.9
		c-21.2,8.3-53.3,16.9-74.8,7.3c-3.2-1.4-6.6-3.5-8.7-6.3C517.7,1026.5,511.5,1006.8,508.6,999.3z"/>
</g>
</svg>
